<svg xmlns="http://www.w3.org/2000/svg" width="45.727" height="60.969" viewBox="0 0 45.727 60.969">
  <g id="_016-unlock" data-name="016-unlock" transform="translate(-3)">
    <g id="Group_323" data-name="Group 323" transform="translate(3 25.404)">
      <path id="Path_1300" data-name="Path 1300" d="M43.646,45.565H8.081A5.086,5.086,0,0,1,3,40.485v-25.4A5.086,5.086,0,0,1,8.081,10H43.646a5.086,5.086,0,0,1,5.081,5.081v25.4A5.086,5.086,0,0,1,43.646,45.565ZM8.081,12.54a2.543,2.543,0,0,0-2.54,2.54v25.4a2.543,2.543,0,0,0,2.54,2.54H43.646a2.543,2.543,0,0,0,2.54-2.54v-25.4a2.543,2.543,0,0,0-2.54-2.54Z" transform="translate(-3 -10)" fill="#373a3d"/>
    </g>
    <g id="Group_324" data-name="Group 324" transform="translate(10.621)">
      <path id="Path_1301" data-name="Path 1301" d="M7.27,27.944A1.271,1.271,0,0,1,6,26.674V15.242a15.242,15.242,0,0,1,30.485,0v1.27a1.27,1.27,0,0,1-2.54,0v-1.27a12.7,12.7,0,1,0-25.4,0V26.674A1.271,1.271,0,0,1,7.27,27.944Z" transform="translate(-6)" fill="#373a3d"/>
    </g>
  </g>
</svg>
