<svg xmlns="http://www.w3.org/2000/svg" width="81.281" height="60.961" viewBox="0 0 81.281 60.961">
  <g id="gmail" transform="translate(0 -64)">
    <rect id="Rectangle_1492" data-name="Rectangle 1492" width="62" height="60" transform="translate(9.659 64.961)" fill="#eceff1"/>
    <path id="Path_417" data-name="Path 417" d="M256,172.122l30.481,24.069V148.672Z" transform="translate(-215.359 -71.23)" fill="#cfd8dc"/>
    <path id="Path_418" data-name="Path 418" d="M73.661,64h-2.54L40.641,88.069,10.16,64H7.62A7.623,7.623,0,0,0,0,71.62v45.721a7.623,7.623,0,0,0,7.62,7.62h2.54V77.442l30.481,23.445,30.481-23.45v47.524h2.54a7.623,7.623,0,0,0,7.62-7.62V71.62A7.623,7.623,0,0,0,73.661,64Z" fill="#fb266e"/>
  </g>
</svg>
