<svg xmlns="http://www.w3.org/2000/svg" xmlns:xlink="http://www.w3.org/1999/xlink" width="95.05" height="94.677" viewBox="0 0 95.05 94.677">
  <defs>
    <linearGradient id="linear-gradient" x1="0.5" y1="1" x2="0.5" gradientUnits="objectBoundingBox">
      <stop offset="0" stop-opacity="0.122"/>
      <stop offset="0.55" stop-opacity="0.09"/>
      <stop offset="1" stop-opacity="0.02"/>
    </linearGradient>
    <linearGradient id="linear-gradient-2" x1="0.5" y1="1" x2="0.5" gradientUnits="objectBoundingBox">
      <stop offset="0" stop-color="gray" stop-opacity="0.251"/>
      <stop offset="0.54" stop-color="gray" stop-opacity="0.122"/>
      <stop offset="1" stop-color="gray" stop-opacity="0.102"/>
    </linearGradient>
    <linearGradient id="linear-gradient-3" x1="2.85" y1="1.97" x2="2.85" y2="0.969" xlink:href="#linear-gradient"/>
  </defs>
  <g id="Group_334" data-name="Group 334" transform="translate(95.05) rotate(90)">
    <path id="Path_1133" data-name="Path 1133" d="M92.726,33.063,77.227,21.4l6.756-8.783L72.708,3.762l-7.046,8.931L49.724.7a3.506,3.506,0,0,0-4.209,0L3.27,32.151A7.49,7.49,0,0,0,.155,38.589H.108L0,87.043H0V89.2a5.283,5.283,0,0,0,5.27,5.3H7.35l40.056.088,42.144.095a5.283,5.283,0,0,0,5.3-5.27l.115-50.521h.088C95.05,35.34,94.327,34.414,92.726,33.063Z" transform="translate(0 95.05) rotate(-90)" fill="url(#linear-gradient)"/>
    <path id="Path_1134" data-name="Path 1134" d="M86.719,35.448c0-3.229-.676-4.054-2.121-5.3L45.366.641a3.2,3.2,0,0,0-3.844,0L2.979,29.34A6.8,6.8,0,0,0,.142,35.211H.1L0,79.422H0v1.966a4.824,4.824,0,0,0,4.81,4.831h1.9l36.55.081,38.448.088a4.824,4.824,0,0,0,4.831-4.81l.1-46.1Z" transform="translate(4.175 90.881) rotate(-90)" fill="url(#linear-gradient-2)"/>
    <path id="Path_1135" data-name="Path 1135" d="M0,0H85.01V46.772A2.824,2.824,0,0,1,82.186,49.6H3.142A3.114,3.114,0,0,1,.027,46.481V0Z" transform="translate(39.564 90.071) rotate(-89.87)" fill="#ffc15a"/>
    <path id="Path_1136" data-name="Path 1136" d="M0,0H85.01V46.772A2.824,2.824,0,0,1,82.186,49.6H3.142A3.114,3.114,0,0,1,.027,46.481V0Z" transform="translate(39.564 90.071) rotate(-89.87)" fill="#fff" opacity="0.2"/>
    <path id="Path_1137" data-name="Path 1137" d="M.095,0,0,42.961a6.6,6.6,0,0,0,6.587,6.614l71.809.162" transform="translate(41.114 90.941) rotate(-90)" fill="#f5f5f5"/>
    <path id="Path_1138" data-name="Path 1138" d="M78.518,0l-.095,42.988a6.6,6.6,0,0,1-6.614,6.587L0,49.413" transform="translate(41.303 82) rotate(-90)" fill="#fff"/>
    <path id="Path_1139" data-name="Path 1139" d="M40.631.627,2.8,28.53a6.587,6.587,0,0,0-2.79,5.709l85.051.27c0-3.142-.676-3.966-2.081-5.155L44.435.641A3.169,3.169,0,0,0,40.631.627Z" transform="translate(5.31 89.997) rotate(-90)" fill="#ffc15a"/>
    <path id="Path_1140" data-name="Path 1140" d="M40.631.627,2.8,28.53a6.587,6.587,0,0,0-2.79,5.709l85.051.27c0-3.142-.676-3.966-2.081-5.155L44.435.641A3.169,3.169,0,0,0,40.631.627Z" transform="translate(5.31 89.997) rotate(-90)" fill="#ffc15a" opacity="0.2"/>
    <path id="Path_1141" data-name="Path 1141" d="M56.892,8.067,46.6,0,21.734,31.5,8.371,21.133,0,31.773,19.45,46.63h0L24.274,50.5Z" transform="translate(7.579 71.147) rotate(-90)" fill="url(#linear-gradient-3)"/>
    <path id="Path_1142" data-name="Path 1142" d="M54.906,7.148,45.582,0,20.876,32.219,7.155,21.7,0,31.023,18.383,45.1h0L23.1,48.636Z" transform="translate(8.302 69.918) rotate(-90)" fill="#fff"/>
  </g>
</svg>
