<svg xmlns="http://www.w3.org/2000/svg" width="537.708" height="308.748" viewBox="0 0 537.708 308.748">
  <g id="Group_912" data-name="Group 912" transform="translate(-29 -290.119)">
    <path id="Path_6090" data-name="Path 6090" d="M550.573,107.948H360.792v-3.8H274.738v3.8H84.176a12.662,12.662,0,0,0-12.837,12.479V373.04a12.662,12.662,0,0,0,12.837,12.479h466.4A12.662,12.662,0,0,0,563.41,373.04V120.428a12.663,12.663,0,0,0-12.838-12.48Z" transform="translate(-23.635 185.973)" fill="#f5f5f5"/>
    <rect id="Rectangle_2011" data-name="Rectangle 2011" width="459.146" height="250.96" transform="translate(64.165 315.97)" fill="#fff"/>
    <path id="Path_6091" data-name="Path 6091" d="M238.6,237.7H228.2a2.625,2.625,0,0,1-2.6-2.641V224.494a2.623,2.623,0,0,1,2.6-2.641h10.4a2.622,2.622,0,0,1,2.6,2.641v10.568A2.624,2.624,0,0,1,238.6,237.7Zm-10.4-14.09a.874.874,0,0,0-.866.881v10.568a.873.873,0,0,0,.866.88h10.4a.874.874,0,0,0,.867-.88V224.494a.875.875,0,0,0-.867-.881Z" transform="translate(-37.712 171.92)" fill="#f9a826"/>
    <rect id="Rectangle_2012" data-name="Rectangle 2012" width="197.528" height="1.761" transform="translate(192.547 407.865)" fill="#f9a826"/>
    <rect id="Rectangle_2013" data-name="Rectangle 2013" width="45.917" height="14.09" transform="translate(342.321 456.3)" fill="#ffd38b"/>
    <path id="Path_6092" data-name="Path 6092" d="M445.651,302.7H403.2a2.623,2.623,0,0,1-2.6-2.642V289.495a2.623,2.623,0,0,1,2.6-2.642h42.452a2.624,2.624,0,0,1,2.6,2.642v10.568A2.624,2.624,0,0,1,445.651,302.7ZM403.2,288.614a.876.876,0,0,0-.866.881v10.568a.874.874,0,0,0,.866.881h42.452a.874.874,0,0,0,.866-.881V289.495a.876.876,0,0,0-.866-.881Z" transform="translate(-53.699 164.162)" fill="#f9a826"/>
    <path id="Path_6100" data-name="Path 6100" d="M381.214,282.895H40.591V50.947Z" transform="translate(23.576 284.034)" fill="#707070" opacity="0.1"/>
    <path id="Path_6101" data-name="Path 6101" d="M572.2,412.79H527.712v-3.128a.628.628,0,0,0-.636-.62H511.822a.628.628,0,0,0-.635.62v3.128h-9.534v-3.128a.628.628,0,0,0-.636-.62H485.763a.628.628,0,0,0-.636.62v3.128h-9.534v-3.128a.628.628,0,0,0-.636-.62H459.7a.628.628,0,0,0-.635.62v3.128h-9.534v-3.128a.628.628,0,0,0-.636-.62H433.646a.628.628,0,0,0-.635.62v3.128h-9.535v-3.128a.628.628,0,0,0-.636-.62H407.586a.628.628,0,0,0-.635.62v3.128h-9.535v-3.128a.628.628,0,0,0-.636-.62H381.527a.628.628,0,0,0-.636.62v3.128h-9.534v-3.128a.628.628,0,0,0-.636-.62H251.231a.628.628,0,0,0-.635.62v3.128h-9.534v-3.128a.628.628,0,0,0-.636-.62H225.172a.628.628,0,0,0-.636.62v3.128H215v-3.128a.628.628,0,0,0-.636-.62H199.113a.628.628,0,0,0-.636.62v3.128h-9.534v-3.128a.628.628,0,0,0-.636-.62H173.054a.628.628,0,0,0-.636.62v3.128h-9.534v-3.128a.628.628,0,0,0-.636-.62H146.995a.628.628,0,0,0-.636.62v3.128h-9.534v-3.128a.628.628,0,0,0-.636-.62H120.936a.628.628,0,0,0-.636.62v3.128h-9.534v-3.128a.628.628,0,0,0-.636-.62H94.876a.628.628,0,0,0-.636.62v3.128H65A15.074,15.074,0,0,0,49.75,427.676v6.731A15.073,15.073,0,0,0,65,449.293H572.2a15.074,15.074,0,0,0,15.254-14.886v-6.731A15.074,15.074,0,0,0,572.2,412.79Z" transform="translate(-20.75 149.574)" fill="#c4c4c4"/>
    <path id="Path_6102" data-name="Path 6102" d="M438.916,308.006H210.2a2.624,2.624,0,0,1-2.6-2.642V208.5a2.623,2.623,0,0,1,2.6-2.642H438.916a2.623,2.623,0,0,1,2.6,2.642v96.869A2.624,2.624,0,0,1,438.916,308.006ZM210.2,207.614a.874.874,0,0,0-.866.881v96.869a.874.874,0,0,0,.866.88H438.916a.875.875,0,0,0,.867-.88V208.5a.875.875,0,0,0-.867-.881Z" transform="translate(-31.435 173.83)" fill="#f9a826"/>
    <path id="Path_6103" data-name="Path 6103" d="M238.6,267.7H228.2a2.625,2.625,0,0,1-2.6-2.642V254.5a2.624,2.624,0,0,1,2.6-2.642h10.4a2.624,2.624,0,0,1,2.6,2.642v10.567A2.624,2.624,0,0,1,238.6,267.7Zm-10.4-14.09a.874.874,0,0,0-.866.88v10.567a.874.874,0,0,0,.866.881h10.4a.874.874,0,0,0,.867-.881V254.5a.874.874,0,0,0-.867-.88Z" transform="translate(-37.712 168.34)" fill="#f9a826"/>
    <rect id="Rectangle_2020" data-name="Rectangle 2020" width="197.528" height="1.761" transform="translate(192.547 434.28)" fill="#f9a826"/>
    <ellipse id="Ellipse_301" data-name="Ellipse 301" cx="12.129" cy="12.329" rx="12.129" ry="12.329" transform="translate(255.82 515.298)" fill="#fff"/>
  </g>
</svg>
