<svg xmlns="http://www.w3.org/2000/svg" width="750.271" height="333.109" viewBox="0 0 750.271 333.109">
  <g id="Group_311" data-name="Group 311" transform="translate(0 0)">
    <path id="Path_5402" data-name="Path 5402" d="M470.356,463.44H166.406a15.472,15.472,0,0,1-15.455-15.455V262.4a11.783,11.783,0,0,1,11.769-11.769H473.867a11.957,11.957,0,0,1,11.944,11.944V447.985A15.472,15.472,0,0,1,470.356,463.44Z" transform="translate(-150.951 -250.629)" fill="#fff"/>
    <path id="Path_5403" data-name="Path 5403" d="M470.356,463.44H166.406a15.472,15.472,0,0,1-15.455-15.455V262.4a11.783,11.783,0,0,1,11.769-11.769H473.867a11.957,11.957,0,0,1,11.944,11.944V447.985A15.472,15.472,0,0,1,470.356,463.44ZM162.72,253.971a8.437,8.437,0,0,0-8.427,8.428V447.986A12.127,12.127,0,0,0,166.406,460.1h303.95a12.127,12.127,0,0,0,12.113-12.113V262.573a8.612,8.612,0,0,0-8.6-8.6Z" transform="translate(-150.951 -250.629)" fill="#e6e6e6"/>
    <path id="Path_5404" data-name="Path 5404" d="M297.307,425.711H206.231a9.2,9.2,0,0,1-9.11-7.989,8.328,8.328,0,0,1-.079-1.2V316.064a9.2,9.2,0,0,1,9.189-9.189h91.075a9.2,9.2,0,0,1,9.189,9.189V416.521A9.2,9.2,0,0,1,297.307,425.711ZM206.231,311.887a4.182,4.182,0,0,0-4.177,4.177V416.521a3.56,3.56,0,0,0,.032.514,4.19,4.19,0,0,0,4.145,3.663h91.075a4.182,4.182,0,0,0,4.177-4.177V316.064a4.182,4.182,0,0,0-4.177-4.177Z" transform="translate(-158.537 -259.887)" fill="#e6e6e6"/>
    <path id="Path_5405" data-name="Path 5405" d="M474.654,407.391H364.381a6.683,6.683,0,1,1,0-13.366H474.654a6.683,6.683,0,1,1,0,13.366Z" transform="translate(-184.982 -274.232)" fill="#09f"/>
    <path id="Path_5406" data-name="Path 5406" d="M424.53,373.391H364.381a6.683,6.683,0,1,1,0-13.366H424.53a6.683,6.683,0,1,1,0,13.366Z" transform="translate(-184.982 -268.636)" fill="#f9a826"/>
    <path id="Path_5407" data-name="Path 5407" d="M286.483,366.63c0,14.764-13.652,12.531-30.492,12.531S225.5,381.394,225.5,366.63s6.669-40.935,30.492-40.935C280.635,325.695,286.483,351.866,286.483,366.63Z" transform="translate(-163.222 -262.985)" fill="#2f2e41"/>
    <path id="Path_5408" data-name="Path 5408" d="M297.076,403.434a7.572,7.572,0,0,0-3.308-4.043,6.574,6.574,0,0,0-.936-.476,7.564,7.564,0,0,0-10.008,9.582l12.147,27.61h16Z" transform="translate(-172.582 -274.941)" fill="#83d4cf"/>
    <path id="Path_5409" data-name="Path 5409" d="M232.24,406.091a7.565,7.565,0,0,0-10.434,4.319L210.5,437.017a6.581,6.581,0,0,0,1.779.242h14.194l9.59-21.787a7.549,7.549,0,0,0-3.818-9.382Z" transform="translate(-160.752 -276.094)" fill="#83d4cf"/>
    <circle id="Ellipse_63" data-name="Ellipse 63" cx="20.518" cy="20.518" r="20.518" transform="translate(72.149 75.114)" fill="#ffb8b8"/>
    <path id="Path_5410" data-name="Path 5410" d="M284.506,399.249c-.117-.109-.234-.226-.359-.326a13.327,13.327,0,0,0-10.651-3.317l-37.81,4.787a13.418,13.418,0,0,0-11.712,14.569c.518,5.831,1.353,13.191,2.69,20.676h59.731l2.2-25.53a13.4,13.4,0,0,0-4.085-10.86Z" transform="translate(-162.961 -274.474)" fill="#83d4cf"/>
    <path id="Path_5411" data-name="Path 5411" d="M233.5,358.415h8.115l3.58-10.025.716,10.025h3.879l2.089-5.848.418,5.848h28.821A21.72,21.72,0,0,0,259.4,336.7h-4.177A21.72,21.72,0,0,0,233.5,358.415Z" transform="translate(-164.538 -264.795)" fill="#2f2e41"/>
    <path id="Path_5412" data-name="Path 5412" d="M648.211,447.985V262.573a11.957,11.957,0,0,1,11.944-11.944H971.3A11.783,11.783,0,0,1,983.071,262.4V447.985a15.472,15.472,0,0,1-15.455,15.455H663.666a15.472,15.472,0,0,1-15.455-15.455Z" transform="translate(-232.8 -250.629)" fill="#fff"/>
    <path id="Path_5413" data-name="Path 5413" d="M648.211,447.985V262.573a11.957,11.957,0,0,1,11.944-11.944H971.3A11.783,11.783,0,0,1,983.071,262.4V447.985a15.472,15.472,0,0,1-15.455,15.455H663.666a15.472,15.472,0,0,1-15.455-15.455Zm11.944-194.015a8.612,8.612,0,0,0-8.6,8.6V447.985A12.127,12.127,0,0,0,663.666,460.1h303.95a12.127,12.127,0,0,0,12.113-12.113V262.4a8.437,8.437,0,0,0-8.427-8.428Z" transform="translate(-232.8 -250.629)" fill="#e6e6e6"/>
    <path id="Path_5414" data-name="Path 5414" d="M871.938,416.521V316.064a9.2,9.2,0,0,1,9.189-9.189H972.2a9.2,9.2,0,0,1,9.189,9.189V416.521a8.332,8.332,0,0,1-.079,1.2,9.2,9.2,0,0,1-9.11,7.989H881.127a9.2,9.2,0,0,1-9.19-9.189Zm9.189-104.634a4.182,4.182,0,0,0-4.177,4.177V416.521a4.182,4.182,0,0,0,4.177,4.177H972.2a4.19,4.19,0,0,0,4.145-3.663,3.542,3.542,0,0,0,.032-.514V316.064a4.182,4.182,0,0,0-4.177-4.177Z" transform="translate(-269.625 -259.887)" fill="#e6e6e6"/>
    <path id="Path_5415" data-name="Path 5415" d="M694.3,400.708a6.691,6.691,0,0,1,6.683-6.683H811.258a6.683,6.683,0,1,1,0,13.366H700.985a6.691,6.691,0,0,1-6.683-6.683Z" transform="translate(-240.387 -274.232)" fill="#09f"/>
    <path id="Path_5416" data-name="Path 5416" d="M694.3,366.708a6.691,6.691,0,0,1,6.683-6.683h60.149a6.683,6.683,0,1,1,0,13.366H700.985A6.691,6.691,0,0,1,694.3,366.708Z" transform="translate(-240.387 -268.636)" fill="#f9a826"/>
    <path id="Path_5417" data-name="Path 5417" d="M909.911,348.995c5.857,11.515,10.473,23.391,23.391,23.391a23.391,23.391,0,1,0,0-46.782C920.173,325.439,899.01,327.562,909.911,348.995Z" transform="translate(-275.379 -262.968)" fill="#2f2e41"/>
    <circle id="Ellipse_64" data-name="Ellipse 64" cx="20.518" cy="20.518" r="20.518" transform="translate(636.254 68.836)" fill="#ff9b96"/>
    <path id="Path_5418" data-name="Path 5418" d="M958.583,400.113a35.746,35.746,0,0,0-4.3-3.977,34.857,34.857,0,0,0-23.717-7.351q-.514.025-1.028.075a34.941,34.941,0,0,0-25.2,13.9,35.377,35.377,0,0,0-6.282,28.529c.226,1.044.426,2.1.618,3.149h68.018l.785-5.263A35.165,35.165,0,0,0,958.583,400.113Z" transform="translate(-273.798 -273.358)" fill="#09f"/>
    <path id="Path_5419" data-name="Path 5419" d="M978.493,406.987a11.908,11.908,0,0,0-11.637-9.858c-.109,0-.226.008-.334.008a11.988,11.988,0,0,0-2.749.384,11.862,11.862,0,0,0-8.4,14.561l6.424,23.742h21.62Z" transform="translate(-283.29 -274.743)" fill="#09f"/>
    <path id="Path_5420" data-name="Path 5420" d="M919.58,400.21a11.843,11.843,0,0,0-3.417-4.077,11.5,11.5,0,0,0-3.358-1.754,11.153,11.153,0,0,0-1.512-.4,11.923,11.923,0,0,0-13.45,7.719L886.08,435.272H908.4l11.386-24.694a11.771,11.771,0,0,0-.209-10.367Z" transform="translate(-271.953 -274.19)" fill="#09f"/>
    <path id="Path_5421" data-name="Path 5421" d="M911.064,341.543a27.906,27.906,0,0,0,15.948,4.929,17.1,17.1,0,0,1-6.778,2.789,56.271,56.271,0,0,0,22.985.129,14.878,14.878,0,0,0,4.812-1.653,6.09,6.09,0,0,0,2.97-3.972c.5-2.881-1.741-5.5-4.073-7.262a30.047,30.047,0,0,0-25.249-5.045c-2.821.729-5.646,1.961-7.478,4.226s-2.375,5.757-.629,8.09Z" transform="translate(-276.066 -263.785)" fill="#2f2e41"/>
    <path id="Path_5422" data-name="Path 5422" d="M718.986,607.44H415.036a15.472,15.472,0,0,1-15.455-15.455V406.4a11.782,11.782,0,0,1,11.769-11.769H722.5a11.957,11.957,0,0,1,11.944,11.944V591.985A15.472,15.472,0,0,1,718.986,607.44Z" transform="translate(-191.875 -274.331)" fill="#fff"/>
    <path id="Path_5423" data-name="Path 5423" d="M718.986,607.44H415.036a15.472,15.472,0,0,1-15.455-15.455V406.4a11.782,11.782,0,0,1,11.769-11.769H722.5a11.957,11.957,0,0,1,11.944,11.944V591.985A15.472,15.472,0,0,1,718.986,607.44ZM411.35,397.971a8.437,8.437,0,0,0-8.427,8.428V591.986A12.127,12.127,0,0,0,415.036,604.1h303.95A12.127,12.127,0,0,0,731.1,591.986V406.573a8.612,8.612,0,0,0-8.6-8.6Z" transform="translate(-191.875 -274.331)" fill="#ccc"/>
    <path id="Path_5424" data-name="Path 5424" d="M545.937,569.711H454.861a9.2,9.2,0,0,1-9.11-7.989,8.328,8.328,0,0,1-.079-1.2V460.064a9.2,9.2,0,0,1,9.189-9.189h91.075a9.2,9.2,0,0,1,9.189,9.189V560.521A9.2,9.2,0,0,1,545.937,569.711ZM454.861,455.887a4.182,4.182,0,0,0-4.177,4.177V560.521a3.56,3.56,0,0,0,.032.514,4.19,4.19,0,0,0,4.145,3.663h91.075a4.182,4.182,0,0,0,4.177-4.177V460.064a4.182,4.182,0,0,0-4.177-4.177Z" transform="translate(-199.462 -283.589)" fill="#e6e6e6"/>
    <path id="Path_5425" data-name="Path 5425" d="M501.784,472.252c-5.929-2.758-13.208-3.662-19.241-1.1s-10.146,9.132-8.195,14.946c.884,2.636,2.9,5.228,2.114,7.89-.6,2.049-2.711,3.4-4.781,4.364s-4.333,1.771-5.83,3.393-1.809,4.415.061,5.674c.616.414,1.386.611,1.983,1.048a3.151,3.151,0,0,1,.973,3.527,7.429,7.429,0,0,1-2.382,3.133c-2.122,1.83-4.927,3.925-4.268,6.523a4.577,4.577,0,0,0,3.089,2.889,15.341,15.341,0,0,0,4.534.6l62.627,1.973a23.742,23.742,0,0,0,6.183-.345,7.32,7.32,0,0,0,4.856-3.262c1.2-2.22.412-4.954-1.069-7.027s-3.577-3.708-5.309-5.612-3.149-4.279-2.844-6.74c.244-1.969,1.543-3.671,2.475-5.461s1.474-4.025.266-5.672c-1.7-2.32-5.787-2.11-7.721-4.271-1.46-1.631-1.178-3.979-1.323-6.083a14.756,14.756,0,0,0-8.839-12.057,17.4,17.4,0,0,0-15.833,1.078Z" transform="translate(-202.17 -286.601)" fill="#2f2e41"/>
    <circle id="Ellipse_65" data-name="Ellipse 65" cx="20.518" cy="20.518" r="20.518" transform="translate(281.414 198.988)" fill="#ff9b96"/>
    <path id="Path_5426" data-name="Path 5426" d="M532.944,565.557a19.873,19.873,0,0,0-10.593-17.46c-.259-.142-.526-.267-.793-.393a19.731,19.731,0,0,0-7.36-1.871l-19.532-1.094a19.715,19.715,0,0,0-8.1,1.245,18.959,18.959,0,0,0-1.846.8,19.667,19.667,0,0,0-5.113,3.634,19.887,19.887,0,0,0-5.9,14.987l.351,8.279,2.456,6.374h54.61a15,15,0,0,0,1.754-2.657,13.3,13.3,0,0,0,.067-11.846Z" transform="translate(-204.073 -299.034)" fill="#f9a826"/>
    <path id="Path_5427" data-name="Path 5427" d="M538.549,555.165a11.815,11.815,0,0,0-4.043-4.8,12.073,12.073,0,0,0-4.186-1.821,12.261,12.261,0,0,0-1.821-.259,11.77,11.77,0,0,0-3.592.309,11.924,11.924,0,0,0-7.677,17.117l7.51,14.218.376.71h25.222Z" transform="translate(-211.015 -299.62)" fill="#f9a826"/>
    <path id="Path_5428" data-name="Path 5428" d="M489.249,547.4a11.978,11.978,0,0,0-3.768-1.186,11.605,11.605,0,0,0-2.949-.042,11.91,11.91,0,0,0-10.326,9.432l-5.087,24.686h19.9l3.718-1.52,4.628-17.761a11.962,11.962,0,0,0-6.115-13.609Z" transform="translate(-202.992 -299.263)" fill="#f9a826"/>
    <path id="Path_5429" data-name="Path 5429" d="M486.238,504.827a12.72,12.72,0,0,0,11.186-13.459,10.868,10.868,0,0,0,9.307,11.066c2.972.328,6.231-.572,8.818.928,2.865,1.661,3.782,5.694,6.768,7.128,2.884,1.386,6.548-.5,7.973-3.369s1.075-6.307.131-9.365A26.443,26.443,0,0,0,486.4,486.916c-2.725,2.741-4.888,6.233-5.239,10.082s1.434,8.024,4.891,9.753Z" transform="translate(-205.297 -288.238)" fill="#2f2e41"/>
    <path id="Path_5430" data-name="Path 5430" d="M723.284,551.391H613.011a6.683,6.683,0,0,1,0-13.366H723.284a6.683,6.683,0,0,1,0,13.366Z" transform="translate(-225.906 -297.934)" fill="#f9a826"/>
    <path id="Path_5431" data-name="Path 5431" d="M673.16,517.391H613.011a6.683,6.683,0,0,1,0-13.366H673.16a6.683,6.683,0,1,1,0,13.366Z" transform="translate(-225.906 -292.338)" fill="#09f"/>
    <path id="Path_5432" data-name="Path 5432" d="M720.619,578.449a22.036,22.036,0,1,0,0,44.072h0a22.036,22.036,0,0,0,0-44.072Z" transform="translate(-241.091 -304.588)" fill="#09f"/>
    <path id="Path_395" data-name="Path 395" d="M720.734,611.918a2.674,2.674,0,0,1-1.609-.535l-.029-.022-6.06-4.636a2.693,2.693,0,0,1,3.277-4.274l3.925,3.01,9.275-12.1a2.692,2.692,0,0,1,3.774-.5h0l-.058.08.059-.08a2.7,2.7,0,0,1,.5,3.775l-10.91,14.227a2.693,2.693,0,0,1-2.142,1.05Z" transform="translate(-243.297 -306.869)" fill="#fff"/>
  </g>
</svg>
