<svg xmlns="http://www.w3.org/2000/svg" width="355.765" height="347.5" viewBox="0 0 355.765 347.5">
  <g id="Group_335" data-name="Group 335" transform="translate(1932.5 -2538)">
    <g id="Group_299" data-name="Group 299" transform="translate(-1932.5 2538)">
      <path id="Path_1090" data-name="Path 1090" d="M708.011,376.121l-186.8,63.134a9.269,9.269,0,0,1-11.735-5.807L422.947,177.427a9.269,9.269,0,0,1,5.807-11.735l186.8-63.134a9.269,9.269,0,0,1,11.735,5.807l86.529,256.021A9.269,9.269,0,0,1,708.011,376.121Z" transform="translate(-422.46 -102.071)" fill="#e6e6e6"/>
      <path id="Path_1091" data-name="Path 1091" d="M710.04,378.19,528.929,439.4A6.263,6.263,0,0,1,521,435.477L436.393,185.145a6.263,6.263,0,0,1,3.923-7.929L621.428,116a6.263,6.263,0,0,1,7.93,3.923L713.964,370.26A6.263,6.263,0,0,1,710.04,378.19Z" transform="translate(-429.256 -108.867)" fill="#fff"/>
      <path id="Path_1092" data-name="Path 1092" d="M686.477,508.2H489.3a9.269,9.269,0,0,1-9.258-9.258V228.69a9.269,9.269,0,0,1,9.258-9.259H686.477a9.269,9.269,0,0,1,9.258,9.259V498.939A9.269,9.269,0,0,1,686.477,508.2Z" transform="translate(-451.222 -160.697)" fill="#ccc"/>
      <path id="Path_1093" data-name="Path 1093" d="M689.468,508.186H498.293a6.263,6.263,0,0,1-6.256-6.256V237.688a6.263,6.263,0,0,1,6.256-6.256H689.468a6.263,6.263,0,0,1,6.256,6.256V501.931A6.263,6.263,0,0,1,689.468,508.186Z" transform="translate(-457.216 -166.692)" fill="#fff"/>
      <path id="Path_1094" data-name="Path 1094" d="M675.12,373.2H548.854a4.011,4.011,0,1,1,0-8.022H675.12a4.011,4.011,0,1,1,0,8.022Z" transform="translate(-483.595 -233.505)" fill="#f9a826"/>
      <path id="Path_1095" data-name="Path 1095" d="M691.665,400.249H548.854a4.011,4.011,0,1,1,0-8.022H691.665a4.011,4.011,0,1,1,0,8.022Z" transform="translate(-483.595 -247.016)" fill="#f9a826"/>
      <path id="Path_1096" data-name="Path 1096" d="M675.121,494.415H548.853a4.011,4.011,0,0,1,0-8.022H675.121a4.011,4.011,0,1,1,0,8.022Z" transform="translate(-483.595 -294.055)" fill="#09f"/>
      <path id="Path_1097" data-name="Path 1097" d="M691.665,521.463H548.853a4.011,4.011,0,0,1,0-8.022H691.665a4.011,4.011,0,0,1,0,8.022Z" transform="translate(-483.595 -307.567)" fill="#09f"/>
      <path id="Path_1098" data-name="Path 1098" d="M675.121,615.628H548.853a4.011,4.011,0,1,1,0-8.021H675.121a4.011,4.011,0,1,1,0,8.021Z" transform="translate(-483.595 -354.606)" fill="#f9a826"/>
      <path id="Path_1099" data-name="Path 1099" d="M691.665,642.676H548.854a4.011,4.011,0,1,1,0-8.021H691.665a4.011,4.011,0,1,1,0,8.021Z" transform="translate(-483.595 -368.118)" fill="#f9a826"/>
    </g>
    <g id="humaaans_sitting-2" data-name="humaaans/sitting-2" transform="translate(-1819.368 2538)">
      <g id="A-Human_Sitting" data-name="A-Human/Sitting" transform="translate(242.633 347.5) rotate(180)">
        <g id="Head_Front_Rad" data-name="Head/Front/Rad" transform="translate(55.518 255.999)">
          <g id="Head" transform="translate(17.478 0)">
            <path id="Path_5389" data-name="Path 5389" d="M8.494,39.592C3.757,45.153.551,51.968,1.086,59.6c1.544,22,32.171,17.162,38.129,6.057s5.25-39.273-2.45-41.257c-3.071-.791-9.612,1.147-16.27,5.16L24.675,0H0Z" fill="#ff9b96" fill-rule="evenodd"/>
          </g>
          <path id="hair" d="M60.048,24.573a7.711,7.711,0,0,0,1.608-2.987,30.179,30.179,0,0,0,1.029-3.393c.518-2.312.523-4.972-1.127-6.767A7.76,7.76,0,0,0,56.418,9.2a9.443,9.443,0,0,0-3.644.462c-1.161.382-2.162,1.142-3.287,1.614a14.707,14.707,0,0,0-1.734-7.227,7.205,7.205,0,0,0-5.365-3.5,10.638,10.638,0,0,0-6.536,1.316c-.508.275-1.012.563-1.493.889a4.186,4.186,0,0,1-1.3.713c-.528.124-.789-.181-1.132-.566A8.609,8.609,0,0,0,30.6,1.7,7.862,7.862,0,0,0,23.239.434a6.837,6.837,0,0,0-3,2.168c-.684.9-1.172,2.321-2.117,2.947-.4.265-.684-.086-1.049-.346C16.526,4.812,16,4.381,15.449,4a7.446,7.446,0,0,0-2.526-1.142c-1.323-.306-3.15-.234-3.528,1.5a7.154,7.154,0,0,0,.013,2c.063.9.129,1.8.207,2.7a19.5,19.5,0,0,0,.263,2.012,2.944,2.944,0,0,1,.131,1.381c-.191.447-1.075.193-1.453.209a5.738,5.738,0,0,0-2.184.48A2.35,2.35,0,0,0,5.05,14.362a2.2,2.2,0,0,0-.037,1.15,3.43,3.43,0,0,1-.07,1.179C3.942,16.2.472,15.1.036,16.9a2.808,2.808,0,0,0,.438,1.777,15.4,15.4,0,0,0,1.617,2.462A22.015,22.015,0,0,0,6.4,25.315a2.823,2.823,0,0,0-.737,4.729,3.5,3.5,0,0,0,2.569.745A5.676,5.676,0,0,1,9.293,30.7a2.542,2.542,0,0,0,.481.162,14.32,14.32,0,0,0,3.94-.5,12.991,12.991,0,0,0,6.009-3.142,1.853,1.853,0,0,1,1.39-.638c.517.005,1.024.147,1.54.16a11.1,11.1,0,0,0,3.866-1.077,14.588,14.588,0,0,0,1.267,5.143c.572,1.257,1.765,1.44,2.938,1.55,3.751.353,7.515-.041,11.271-.036-3.636.822-7.393,1.161-11,2.128-1.629.437-.385,1.535.311,2.3A13.229,13.229,0,0,1,33.9,41.191c1.779-2.318,4.922-3.846,7.707-3.134,3.077.787,5.244,4.948,3.276,7.94-1.142,1.737-3.206,2.407-4.922,3.153,1.339,1.392,1.663,3.449,2.469,5.181a3.708,3.708,0,0,0,1.845,2.118,2.156,2.156,0,0,1,.974.388c.321.332.4.7.809.988a4.559,4.559,0,0,0,5.649-.435c1.313-1.344.971-3.471-.125-4.834,1.746-.728,4.926-1.663,4.232-4.383C59.6,47.923,68.78,41.789,63.7,37.306c2.786-1.575,5.345-5.423,3.556-8.815-1.379-2.612-4.583-3.78-7.213-3.918" transform="translate(67.855 91.501) rotate(180)" fill="#191847" fill-rule="evenodd"/>
        </g>
        <g id="Bottom_Sitting_Skinny-Jeans-1" data-name="Bottom/Sitting/Skinny-Jeans-1" transform="translate(0 0)">
          <g id="Objects_Seat_Cube" data-name="Objects/Seat/Cube" transform="translate(0)">
            <g id="Seat">
              <path id="Seat-Stuff" d="M28.4,127.485h79.426L118.232,0H0Z" fill="#c5cfd6" fill-rule="evenodd"/>
              <path id="Seat-Stuff-2" data-name="Seat-Stuff" d="M28.4,127.485H52.827L67.448,0H0Z" fill="rgba(0,0,0,0.1)" fill-rule="evenodd"/>
            </g>
          </g>
          <path id="Skin" d="M69.784,145.041c8.469,5.085,22.676-1.448,22.667-8.721C92.422,114.561,72.564,12.009,71.526,5.526s-12.143-8.2-12.79-.021c-1.029,13.006-2.941,58.03-1.028,78.871.79,8.6,1.64,16.795,2.477,24.1Q44.556,80.253,11.84,27.654L0,33.063q13.946,45.95,22.871,64.879c10.189,21.607,19.742,40.111,23.763,46.629C52.959,154.824,63.967,151.247,69.784,145.041Z" transform="translate(128.592 4.286)" fill="#ff9b96" fill-rule="evenodd"/>
          <path id="LegLower" d="M0,0,5.262,104.363c3.792,18.046,35.888,9.671,35.875,0C41.107,82.407,27.918,6.562,27.909.022Z" transform="translate(129.438 54.361) rotate(-20)" fill="#69a1ac" fill-rule="evenodd"/>
          <g id="Accessories_Shoe_Flat-Sneaker" data-name="Accessories/Shoe/Flat-Sneaker" transform="matrix(0.866, -0.5, 0.5, 0.866, 118.183, 31.285)">
            <path id="shoe" d="M1.725,15.008A22.076,22.076,0,0,1,0,8.116,51.587,51.587,0,0,1,.927,0H58.914q2.26,7.473-2.61,8.068T48.213,9.144L21.261,21.16a1.028,1.028,0,0,1-1.358-.52l-.012-.027-1.732-4.2a18.489,18.489,0,0,0-7.327-2.1,16.593,16.593,0,0,0-6.325,1.85h0a2.056,2.056,0,0,1-2.726-1.012Q1.751,15.077,1.725,15.008Z" transform="translate(0 0)" fill="#e4e4e4" fill-rule="evenodd"/>
          </g>
          <g id="Accessories_Shoe_Flat-Sneaker-2" data-name="Accessories/Shoe/Flat-Sneaker" transform="translate(183.003)">
            <path id="shoe-2" data-name="shoe" d="M1.725,15.008A22.076,22.076,0,0,1,0,8.116,51.587,51.587,0,0,1,.927,0H58.914q2.26,7.473-2.61,8.068T48.213,9.144L21.261,21.16a1.028,1.028,0,0,1-1.358-.52l-.012-.027-1.732-4.2a18.488,18.488,0,0,0-7.327-2.1,16.593,16.593,0,0,0-6.325,1.85h0a2.056,2.056,0,0,1-2.726-1.012Q1.751,15.077,1.725,15.008Z" transform="translate(0)" fill="#e4e4e4" fill-rule="evenodd"/>
          </g>
          <path id="Leg-and-Butt" d="M175.57,97.062c0-27.314-12.971-91.025-12.979-97.04L134.682,0q6.127,85.275,4.346,86.193c-1.783.919-73.048-7.115-94.422-7.115C13.785,79.078,1.034,98.514,0,134.519H61.055c12.432-1.33,77.276-14.409,101.357-18.905C172.722,113.688,175.57,104.586,175.57,97.062Z" transform="translate(48.321 36.147)" fill="#89c5cc" fill-rule="evenodd"/>
        </g>
        <g id="Body_Pointing-Forward" data-name="Body/Pointing-Forward" transform="translate(35.186 129.713)">
          <path id="Skin-2" data-name="Skin" d="M0,32.221,35.686,51.766A88.278,88.278,0,0,0,53.226,68.184c1.76.735,4.837,1.179,1.96-3.929s-5.676-10.611-4.21-12.185,5.123.625,6.873-1.99q1.749-2.615-18.74-8.262L13.178,18.077ZM55.89,15.73l15.676,8.611q3.3,12.554,7.887,12.632c2.35,1.093-1.742-9.482,2.712-8.565s15.327,9,17.2,7.361c2.772-2.429.3-9.887-2.611-13.6-5.442-6.934-9.947-9.305-21.084-12.41Q66.935,7.327,56.782,0Z" transform="translate(83.702 72.783)" fill="#ff9b96" fill-rule="evenodd"/>
          <path id="Sleeve" d="M5.659,25.044a87.686,87.686,0,0,1,48.574,6.543l4.461-16.477C44.674,5.005,26.073-2.176,11.242.6-.445,2.791-4.2,17.941,5.659,25.044Z" transform="translate(64.651 83.735) rotate(9)" fill="#e87613" fill-rule="evenodd"/>
          <path id="Clothes" d="M83.153,84.379q19.9-4.964,66.757,11.708,11.622-24.042,10.745-34.281c-26.8-14-49.76-20.237-68.682-20.649.6-11.226-.765-21.909-5.355-31.67C77.181-10.58,21.92,8,3.34,4.346-8.3,42.134,14.2,57.49,14.22,81.669,14.24,108.147,35.5,148.9,38.629,148.9H67.156C68.73,128.682,76.652,106.4,83.153,84.379Z" transform="translate(0 0)" fill="#ff9b21" fill-rule="evenodd"/>
        </g>
      </g>
    </g>
  </g>
</svg>
