<svg xmlns="http://www.w3.org/2000/svg" width="322.525" height="333.074" viewBox="0 0 322.525 333.074">
  <g id="Group_961" data-name="Group 961" transform="translate(-4659 -3483)">
    <g id="Group_960" data-name="Group 960" transform="translate(4659 3483)">
      <path id="Path_1105" data-name="Path 1105" d="M362.061,469.567h-.084c-3.126,0-6.29-.093-9.4-.277l.046-.786c3.1.183,6.247.276,9.357.276h.084Zm9.49-.287-.047-.786c3.132-.188,6.3-.473,9.406-.848l.095.782c-3.126.378-6.306.664-9.451.853Zm-28.431-.833c-3.13-.374-6.288-.848-9.387-1.41l.141-.776c3.083.559,6.225,1.031,9.34,1.406Zm47.27-1.441-.142-.776c3.085-.562,6.192-1.228,9.235-1.977l.188.765c-3.056.753-6.181,1.421-9.282,1.987Zm-65.942-1.949c-3.061-.749-6.139-1.6-9.147-2.537l.234-.753c3,.93,6.056,1.779,9.1,2.525Zm84.368-2.588-.235-.753c2.989-.932,5.991-1.969,8.925-3.084l.28.737c-2.948,1.121-5.966,2.165-8.97,3.1Zm-102.509-3.045c-2.948-1.116-5.9-2.34-8.785-3.637l.323-.719c2.867,1.29,5.807,2.506,8.742,3.618Zm120.235-3.687-.324-.719c2.854-1.284,5.706-2.679,8.477-4.137l.367.7c-2.786,1.468-5.652,2.867-8.52,4.161Zm-137.565-4.113c-2.795-1.467-5.579-3.039-8.275-4.672l.408-.672c2.683,1.624,5.453,3.189,8.234,4.65Zm154.343-4.71-.408-.672c2.68-1.624,5.346-3.351,7.922-5.132l.448.648C448.691,443.545,446.01,445.281,443.32,446.913ZM272.73,441.79c-2.6-1.794-5.169-3.689-7.649-5.632l.489-.62c2.467,1.935,5.028,3.82,7.611,5.6Zm186.191-5.664-.489-.62c2.473-1.941,4.913-3.973,7.252-6.052l.523.589c-2.351,2.085-4.8,4.13-7.288,6.081Zm-201.135-6.052c-2.36-2.091-4.687-4.279-6.915-6.507l.557-.557c2.217,2.215,4.532,4.394,6.88,6.474Zm215.334-6.541-.557-.557c2.22-2.22,4.4-4.534,6.48-6.878l.589.523c-2.088,2.355-4.279,4.681-6.51,6.911Zm-228.759-6.876c-2.093-2.359-4.14-4.81-6.083-7.285l.619-.489c1.934,2.462,3.973,4.9,6.052,7.249Zm241.352-7.32-.62-.489c1.941-2.474,3.827-5.034,5.608-7.608l.648.448C489.56,404.278,487.664,406.851,485.713,409.337Zm-253.072-7.595c-1.794-2.592-3.531-5.269-5.162-7.958l.672-.41c1.623,2.676,3.351,5.34,5.135,7.919Zm263.874-8.024-.672-.408c1.627-2.685,3.193-5.455,4.653-8.231l.7.367C499.725,388.235,498.154,391.019,496.516,393.719Zm-273.708-8.188c-1.467-2.786-2.868-5.652-4.162-8.518l.718-.325c1.289,2.852,2.682,5.7,4.142,8.475ZM505.36,376.9l-.719-.323c1.294-2.873,2.512-5.811,3.623-8.742l.737.28c-1.117,2.943-2.342,5.9-3.641,8.783Zm-290.353-8.641c-1.121-2.946-2.166-5.964-3.1-8.971l.752-.235c.935,2.991,1.974,5.994,3.089,8.925Zm297.1-9.133-.753-.234c.932-3,1.783-6.056,2.53-9.1l.765.188c-.751,3.059-1.606,6.136-2.542,9.146ZM209.35,350.147c-.754-3.056-1.424-6.178-1.992-9.281l.775-.142c.565,3.087,1.232,6.194,1.982,9.234ZM516.629,340.7l-.776-.142c.56-3.083,1.034-6.224,1.406-9.338l.782.094c-.373,3.129-.849,6.289-1.412,9.385Zm-310.7-9.217c-.378-3.125-.667-6.3-.856-9.453l.786-.048c.189,3.132.477,6.3.856,9.405Zm312.96-9.623-.786-.046c.183-3.126.28-6.3.28-9.441v-.333h.788v.333C519.174,315.525,519.079,318.717,518.892,321.858Zm-313.323-9.32h-.788v-.167c0-3.1.091-6.235.271-9.32l.786.046c-.179,3.069-.27,6.189-.27,9.274ZM518.085,302.6c-.193-3.135-.484-6.3-.863-9.4l.782-.1c.381,3.121.672,6.3.868,9.452Zm-311.412-8.907-.782-.093c.373-3.13.845-6.288,1.406-9.388l.776.14C207.514,287.434,207.043,290.577,206.673,293.691Zm309.119-9.834c-.57-3.091-1.24-6.2-1.993-9.231l.765-.189c.756,3.05,1.43,6.174,2,9.279ZM210.035,275.11l-.765-.187c.748-3.056,1.6-6.137,2.533-9.149l.753.233c-.929,3-1.776,6.059-2.52,9.1Zm301.215-9.58c-.937-2.992-1.98-5.994-3.1-8.925l.734-.281c1.124,2.943,2.173,5.961,3.118,8.968Zm-295.618-8.472-.737-.279c1.116-2.949,2.338-5.905,3.632-8.787l.719.323C217.957,251.183,216.741,254.124,215.632,257.058ZM504.524,247.9c-1.291-2.851-2.69-5.7-4.151-8.471l.7-.367c1.471,2.783,2.873,5.648,4.171,8.514Zm-281.142-8.092-.7-.367c1.462-2.788,3.033-5.573,4.668-8.278l.672.408C226.4,234.266,224.838,237.037,223.382,239.812Zm272.332-8.586c-1.626-2.673-3.357-5.335-5.145-7.913l.648-.449c1.8,2.591,3.536,5.267,5.17,7.954Zm-262.558-7.589-.649-.448c1.789-2.591,3.682-5.165,5.628-7.652l.62.485C236.825,218.5,234.938,221.058,233.157,223.637Zm251.8-7.916c-1.941-2.465-3.981-4.9-6.061-7.243l.589-.523c2.091,2.352,4.14,4.8,6.09,7.279Zm-240.15-6.958-.59-.523c2.088-2.36,4.279-4.687,6.5-6.917l.558.556C249.06,204.1,246.883,206.414,244.806,208.763Zm227.606-7.152c-2.226-2.218-4.543-4.394-6.888-6.467l.521-.59c2.356,2.083,4.686,4.27,6.922,6.5ZM258.146,195.4l-.523-.589c2.352-2.089,4.8-4.137,7.282-6.087l.489.619C262.927,191.279,260.487,193.317,258.146,195.4Zm200.114-6.3c-2.469-1.932-5.032-3.814-7.617-5.6l.448-.649c2.6,1.79,5.173,3.683,7.654,5.624Zm-185.275-5.372-.449-.648c2.589-1.794,5.266-3.533,7.957-5.166l.409.672c-2.677,1.625-5.34,3.355-7.917,5.141ZM442.7,178.376c-2.69-1.624-5.461-3.184-8.238-4.64l.367-.7c2.791,1.463,5.577,3.031,8.28,4.663Zm-153.59-4.44-.367-.7c2.784-1.467,5.65-2.873,8.516-4.167l.325.718c-2.852,1.29-5.7,2.685-8.473,4.146Zm136.848-4.33c-2.868-1.284-5.807-2.5-8.745-3.607l.279-.737c2.95,1.114,5.906,2.334,8.789,3.627Zm-119.667-3.438-.281-.734c2.948-1.123,5.966-2.169,8.97-3.109l.235.752c-2.992.932-5.994,1.973-8.927,3.091Zm101.971-3.24c-3-.927-6.059-1.773-9.1-2.515l.187-.765c3.056.746,6.138,1.6,9.15,2.528Zm-83.951-2.4-.19-.765c3.06-.757,6.183-1.429,9.28-2l.142.775c-3.082.565-6.188,1.234-9.231,1.987Zm65.608-2.078c-3.08-.556-6.222-1.025-9.341-1.394l.092-.782c3.135.371,6.293.842,9.389,1.4Zm-47.039-1.334-.1-.782c3.123-.38,6.3-.672,9.452-.863l.048.786c-3.134.191-6.3.48-9.4.856Zm28.288-.888c-3.043-.176-6.135-.265-9.191-.265h-.251v-.788h.251c3.071,0,6.18.09,9.237.267Z" transform="translate(-198.057 -149.062)" fill="#fff"/>
      <rect id="Rectangle_316" data-name="Rectangle 316" width="93.414" height="70.061" transform="translate(229.111 263.013)" fill="#f9a826"/>
      <rect id="Rectangle_317" data-name="Rectangle 317" width="70.061" height="4.671" transform="translate(240.788 281.696)" fill="#fff"/>
      <rect id="Rectangle_318" data-name="Rectangle 318" width="70.061" height="4.671" transform="translate(240.788 295.708)" fill="#fff"/>
      <rect id="Rectangle_319" data-name="Rectangle 319" width="70.061" height="4.671" transform="translate(240.788 309.72)" fill="#fff"/>
      <rect id="Rectangle_320" data-name="Rectangle 320" width="65.249" height="48.937" transform="translate(4.89)" fill="#e6e6e6"/>
      <rect id="Rectangle_321" data-name="Rectangle 321" width="48.937" height="3.262" transform="translate(13.046 13.05)" fill="#fff"/>
      <rect id="Rectangle_322" data-name="Rectangle 322" width="48.937" height="3.262" transform="translate(13.046 22.837)" fill="#fff"/>
      <rect id="Rectangle_323" data-name="Rectangle 323" width="48.937" height="3.262" transform="translate(13.046 32.624)" fill="#fff"/>
      <rect id="Rectangle_324" data-name="Rectangle 324" width="65.249" height="48.937" transform="translate(32.621 25.284)" fill="#f9a826"/>
      <rect id="Rectangle_325" data-name="Rectangle 325" width="48.937" height="3.262" transform="translate(40.777 38.334)" fill="#fff"/>
      <rect id="Rectangle_326" data-name="Rectangle 326" width="48.937" height="3.262" transform="translate(40.777 48.121)" fill="#fff"/>
      <rect id="Rectangle_327" data-name="Rectangle 327" width="48.937" height="3.262" transform="translate(40.777 57.908)" fill="#fff"/>
      <path id="Subtraction_1" data-name="Subtraction 1" d="M1207.887-3111.737H1030V-3245h177.887Zm-176.053-131.429v129.595h174.219v-129.595Z" transform="translate(-954.811 3341.585)" fill="#fff"/>
      <rect id="Rectangle_341" data-name="Rectangle 341" width="65.249" height="48.937" transform="translate(0 251.243)" fill="#e6e6e6"/>
      <rect id="Rectangle_342" data-name="Rectangle 342" width="48.937" height="3.262" transform="translate(8.156 264.293)" fill="#fff"/>
      <rect id="Rectangle_343" data-name="Rectangle 343" width="48.937" height="3.262" transform="translate(8.156 274.079)" fill="#fff"/>
      <rect id="Rectangle_344" data-name="Rectangle 344" width="48.937" height="3.262" transform="translate(8.156 283.867)" fill="#fff"/>
    </g>
    <g id="humaaans_standing-19" data-name="humaaans/standing-19" transform="translate(4710.248 3483)">
      <g id="humaaan-3" transform="translate(0 0)">
        <g id="Head_Front_Short-Beard" data-name="Head/Front/Short-Beard" transform="matrix(-0.966, -0.259, 0.259, -0.966, 129.011, 67.854)">
          <g id="Head" transform="translate(0.818 0)">
            <path id="Path_5501" data-name="Path 5501" d="M6.736,31.116C2.979,35.486.437,40.842.862,46.843,2.086,64.135,26.371,60.331,31.1,51.6s4.163-30.865-1.943-32.425c-2.435-.622-7.622.9-12.9,4.055L19.565,0H0Z" transform="translate(0 0)" fill="#ff9b96" fill-rule="evenodd"/>
          </g>
          <path id="Hair" d="M17.32,26.528q1.123-15.51,5.943-15.51c4.82,0,8.91,3.033,11.025,3.033,1.542,0,1.2-1.912.175-3.33-.843-1.17-4.949-2.3-4.949-4.111s4.318.3,4.318-.771c0-1.779-.5-5.839-3.62-5.839C27.061,0,18.021,1.139,16.472,5.777q-1.5,4.49-1.939,18.608a4.975,4.975,0,0,1-.583.034,4.87,4.87,0,0,1-4.891-4.848A4.813,4.813,0,0,1,10.531,16.1c-1.132-1.583-2.4-3.237-3.854-4.944C1.218,14.405-2.834,23.91,2.5,33.041,3.98,37.514,7.32,39.9,11.265,41.013a14.308,14.308,0,0,0,9.314.68c5.49-.467,10.392-2.126,11.781-3.111,0-5.151-1.008-6.68-9.609-6.545C20.637,30.931,19.013,29.026,17.32,26.528Z" transform="translate(0 18.6)" fill="#191847" fill-rule="evenodd"/>
        </g>
        <g id="Bottom_Standing_Baggy-Pants" data-name="Bottom/Standing/Baggy-Pants" transform="translate(10.597 133.449)">
          <path id="Leg" d="M222.6,0,182.585,100.88l-26.836,85.286h-10.6L186.178,0Z" transform="translate(-114.174)" fill="#ff9b96" fill-rule="evenodd"/>
          <path id="Leg-2" data-name="Leg" d="M73.079,0c.426,35.45,6.64,83.177,7.633,85.388q.992,2.209,68.541,56.2l-7.3,7.781Q62.253,103.078,58.565,96.9C54.877,90.73,42.869,33.914,33.229,0Z" transform="translate(43.401)" fill="#ff9b96" fill-rule="evenodd"/>
          <g id="Accessories_Shoe_Flat-Sneaker" data-name="Accessories/Shoe/Flat-Sneaker" transform="matrix(-0.643, 0.766, -0.766, -0.643, 203.674, 145.578)">
            <path id="shoe" d="M1.368,11.9A17.5,17.5,0,0,1,0,6.436,40.906,40.906,0,0,1,.735,0H46.714q1.792,5.925-2.069,6.4t-6.416.853L16.859,16.778a.815.815,0,0,1-1.076-.413l-.009-.021L14.4,13.012a14.66,14.66,0,0,0-5.81-1.668,13.156,13.156,0,0,0-5.015,1.467h0a1.63,1.63,0,0,1-2.162-.8Q1.388,11.955,1.368,11.9Z" transform="translate(0 0)" fill="#e4e4e4" fill-rule="evenodd"/>
          </g>
          <g id="Accessories_Shoe_Flat-Sneaker-2" data-name="Accessories/Shoe/Flat-Sneaker" transform="translate(0 177.36)">
            <path id="shoe-2" data-name="shoe" d="M47,25.889a17.5,17.5,0,0,1,1.368,5.465,40.906,40.906,0,0,1-.735,6.436H1.651q-1.792-5.925,2.069-6.4t6.416-.853l21.371-9.527a.815.815,0,0,1,1.076.413l.009.021,1.374,3.332a14.66,14.66,0,0,0,5.81,1.668,13.156,13.156,0,0,0,5.015-1.467h0a1.63,1.63,0,0,1,2.162.8Q46.977,25.835,47,25.889Z" transform="translate(-1.083 -20.941)" fill="#e4e4e4" fill-rule="evenodd"/>
          </g>
          <path id="Pant" d="M188.651,177.381l-50.384-5.447L175.607,0h45.127Z" transform="translate(-107.129 0)" fill="#69a1ac" fill-rule="evenodd"/>
          <path id="Pant-2" data-name="Pant" d="M156.591,129.037,123.543,168Q71.329,111.2,62.661,93.871T47.077,0h50.8q3.778,67.341,5.093,70.475T156.591,129.037Z" transform="translate(25.641)" fill="#89c5cc" fill-rule="evenodd"/>
        </g>
        <g id="Body_Hoodie" data-name="Body/Hoodie" transform="translate(169.824 207.971) rotate(-170)">
          <path id="Skin" d="M127.678,72.152l26-19a70.183,70.183,0,0,0,17.677-7.068c1.118-1.013,2.469-3.066-2.167-2.711s-9.528.52-10.167-1.054,2.166-3.454.873-5.577Q158.6,34.617,147.68,47.387L121.929,58.012ZM27.836,71.5l17.036-.067Q29.093,20.745,27.836,17.645C25.949,12.992,29.941,5.908,31.648,2.1c-5.56-2.476-4.967,6.692-11.981,3.445C13.266,2.583,8.4-2.787,1,1.754c-.909.558-1.906,2.66.5,4.3,6,4.093,14.642,11.256,15.81,13.613Q19.7,24.493,27.836,71.5Z" transform="translate(0 0)" fill="#ff9b96" fill-rule="evenodd"/>
          <path id="Coat-Back" d="M0,90.548l6.918,1.813C34.932,72.244,49.4,30.153,83.33,10.154L76.472,0C20.47,1.979,2.146,53.26,0,90.548Z" transform="translate(68.356 52.424) rotate(-5)" fill="#e87613" fill-rule="evenodd"/>
          <path id="Shirt" d="M0,0H62.373c2.85,0,2.313,4.095,1.9,6.161C59.519,30.011,40.958,55.72,40.958,89.669L22.966,92.476C8.085,68.661,2.939,39.339,0,0Z" transform="translate(45.519 54.478)" fill="#fff" fill-rule="evenodd"/>
          <path id="Coat-Front" d="M29.142,103.137a10.277,10.277,0,0,0-6.208,5.23c-6.576,11.807-4.2,18.308,2.826,20.445s13.295-2.265,24.491-2.265a11.324,11.324,0,0,0,1.674-.114l5.632-.32Q81.8,44.368,70.928,17.035H21.836A166.212,166.212,0,0,0,13.485,0H.109Q-1.78,60.758,29.142,103.137Z" transform="translate(16.878 20.408)" fill="#ff9b21" fill-rule="evenodd"/>
          <path id="Shade" d="M10.69,27.988Q13.006,8.706,18.218,0H0Q5.089,11.809,10.69,27.988Z" transform="translate(38.714 37.442)" fill="rgba(0,0,0,0.1)" fill-rule="evenodd"/>
        </g>
      </g>
    </g>
    <g id="Group_41" data-name="Group 41" transform="translate(4684.624 3621.206)">
      <circle id="Ellipse_220" data-name="Ellipse 220" cx="25.624" cy="25.624" r="25.624" transform="translate(0 0)" fill="#ff9b21"/>
      <path id="Path_1106" data-name="Path 1106" d="M441.649,386.973h-8.712v-8.712a2.05,2.05,0,0,0-2.05-2.05h0a2.05,2.05,0,0,0-2.05,2.05v8.712h-8.712a2.05,2.05,0,0,0-2.05,2.05h0a2.05,2.05,0,0,0,2.05,2.05h8.712v8.712a2.05,2.05,0,0,0,2.05,2.05h0a2.05,2.05,0,0,0,2.05-2.05v-8.712h8.712a2.05,2.05,0,0,0,2.05-2.05h0A2.05,2.05,0,0,0,441.649,386.973Z" transform="translate(-405.385 -363.501)" fill="#fff"/>
    </g>
  </g>
</svg>
