<svg xmlns="http://www.w3.org/2000/svg" width="88.477" height="118.449" viewBox="0 0 88.477 118.449">
  <g id="Group_919" data-name="Group 919" transform="translate(58.468 -3020.237)">
    <g id="Group_914" data-name="Group 914" transform="translate(-58.468 3020.237)">
      <path id="Path_1092" data-name="Path 1092" d="M564.717,337.881H483.835a3.8,3.8,0,0,1-3.8-3.8V223.23a3.8,3.8,0,0,1,3.8-3.8h80.882a3.8,3.8,0,0,1,3.8,3.8V334.083A3.8,3.8,0,0,1,564.717,337.881Z" transform="translate(-480.037 -219.432)" fill="#ccc"/>
      <path id="Path_1093" data-name="Path 1093" d="M573.022,344.954H494.6a2.569,2.569,0,0,1-2.566-2.566V234a2.569,2.569,0,0,1,2.566-2.566h78.419A2.569,2.569,0,0,1,575.588,234v108.39A2.569,2.569,0,0,1,573.022,344.954Z" transform="translate(-489.574 -228.969)" fill="#fff"/>
      <path id="Path_1094" data-name="Path 1094" d="M598.282,368.471H546.488a1.645,1.645,0,1,1,0-3.29h51.794a1.645,1.645,0,0,1,0,3.29Z" transform="translate(-531.539 -335.261)" fill="#f9a826"/>
      <path id="Path_1095" data-name="Path 1095" d="M605.068,395.518h-58.58a1.645,1.645,0,1,1,0-3.29h58.58a1.645,1.645,0,1,1,0,3.29Z" transform="translate(-531.539 -356.755)" fill="#f9a826"/>
      <path id="Path_1096" data-name="Path 1096" d="M598.282,489.684H546.488a1.645,1.645,0,1,1,0-3.29h51.794a1.645,1.645,0,1,1,0,3.29Z" transform="translate(-524.753 -431.591)" fill="#09f"/>
      <path id="Path_1097" data-name="Path 1097" d="M605.068,516.732h-58.58a1.645,1.645,0,0,1,0-3.29h58.58a1.645,1.645,0,0,1,0,3.29Z" transform="translate(-531.539 -453.086)" fill="#09f"/>
      <path id="Path_1098" data-name="Path 1098" d="M598.282,610.9H546.488a1.645,1.645,0,1,1,0-3.29h51.794a1.645,1.645,0,1,1,0,3.29Z" transform="translate(-531.539 -527.921)" fill="#f9a826"/>
      <path id="Path_1099" data-name="Path 1099" d="M605.068,637.945h-58.58a1.645,1.645,0,1,1,0-3.29h58.58a1.645,1.645,0,1,1,0,3.29Z" transform="translate(-531.539 -549.416)" fill="#f9a826"/>
    </g>
    <g id="Group_913" data-name="Group 913" transform="translate(8.654 3040.674)">
      <circle id="Ellipse_295" data-name="Ellipse 295" cx="6.04" cy="6.04" r="6.04" transform="translate(0.013 0.016)" fill="#3ad29f"/>
      <path id="Path_6081" data-name="Path 6081" d="M839.137,206.731a6.042,6.042,0,0,1,10.7-3.847,6.042,6.042,0,1,0-9.808,7,6.01,6.01,0,0,1-.888-3.154Z" transform="translate(-838.63 -199.981)" fill="#fff" opacity="0.2"/>
      <path id="Path_6082" data-name="Path 6082" d="M-99.715,2738.555l.174,3.381,5.716-5.576" transform="translate(102.823 -2733.091)" fill="none" stroke="#fff" stroke-linecap="round" stroke-linejoin="round" stroke-width="1"/>
    </g>
    <g id="Group_915" data-name="Group 915" transform="translate(8.654 3091.029)">
      <circle id="Ellipse_295-2" data-name="Ellipse 295" cx="6.04" cy="6.04" r="6.04" transform="translate(0.013 0.016)" fill="#3ad29f"/>
      <path id="Path_6081-2" data-name="Path 6081" d="M839.137,206.731a6.042,6.042,0,0,1,10.7-3.847,6.042,6.042,0,1,0-9.808,7A6.012,6.012,0,0,1,839.137,206.731Z" transform="translate(-838.63 -199.981)" fill="#fff" opacity="0.2"/>
      <path id="Path_6082-2" data-name="Path 6082" d="M-99.715,2738.555l.174,3.381,5.716-5.576" transform="translate(102.823 -2733.091)" fill="none" stroke="#fff" stroke-linecap="round" stroke-linejoin="round" stroke-width="1"/>
    </g>
    <g id="Group_912" data-name="Group 912" transform="translate(-54.569 3063.394)">
      <path id="Path_6084" data-name="Path 6084" d="M8.022,0A8.022,8.022,0,1,1,0,8.022,8.022,8.022,0,0,1,8.022,0Z" transform="translate(0.018 0.022)" fill="#ff3e3e"/>
      <path id="Path_6083" data-name="Path 6083" d="M839.3,208.946a8.025,8.025,0,0,1,14.208-5.11,8.025,8.025,0,1,0-13.028,9.3A7.983,7.983,0,0,1,839.3,208.946Z" transform="translate(-838.63 -199.981)" fill="#fff" opacity="0.2"/>
      <g id="Group_911" data-name="Group 911" transform="translate(4.864 4.868)">
        <line id="Line_26" data-name="Line 26" y2="8.983" transform="translate(6.352 6.352) rotate(135)" fill="none" stroke="#fff" stroke-linecap="round" stroke-width="1"/>
        <line id="Line_27" data-name="Line 27" y2="8.983" transform="translate(6.352 0) rotate(45)" fill="none" stroke="#fff" stroke-linecap="round" stroke-width="1"/>
      </g>
    </g>
    <text id="Exam_questions_" data-name="Exam questions " transform="translate(-49.396 3032.054)" fill="#09f" font-size="9" font-family="SegoePrint, Segoe Print" letter-spacing="-0.04em"><tspan x="0" y="0">Exam questions </tspan></text>
    <g id="Group_916" data-name="Group 916" transform="translate(-24.664 3111.385)">
      <circle id="Ellipse_295-3" data-name="Ellipse 295" cx="10.422" cy="10.422" r="10.422" transform="translate(0.023 0.028)" fill="#3ad29f"/>
      <path id="Path_6081-3" data-name="Path 6081" d="M839.505,211.628a10.425,10.425,0,0,1,18.458-6.638,10.425,10.425,0,1,0-16.925,12.081,10.372,10.372,0,0,1-1.533-5.443Z" transform="translate(-838.63 -199.981)" fill="#fff" opacity="0.2"/>
      <text id="_70_" data-name="70%" transform="translate(3.774 15.615) rotate(-20)" fill="#fff" font-size="7" font-family="SegoePrint, Segoe Print" letter-spacing="-0.04em"><tspan x="0" y="0">70%</tspan></text>
    </g>
  </g>
</svg>
