<svg xmlns="http://www.w3.org/2000/svg" width="585" height="309.765" viewBox="0 0 585 309.765">
  <g id="Group_946" data-name="Group 946" transform="translate(-292 -748)">
    <g id="Group_939" data-name="Group 939" transform="translate(292 903)">
      <circle id="Ellipse_352" data-name="Ellipse 352" cx="47" cy="47" r="47" fill="#fff"/>
      <path id="Path_6218" data-name="Path 6218" d="M465.721,189.02H449.327a5.621,5.621,0,0,1-5.621-5.621V167.005a.468.468,0,0,0-.468-.468H432.465a7.494,7.494,0,0,0-7.494,7.494V211.5A7.494,7.494,0,0,0,432.465,219H458.7a7.494,7.494,0,0,0,7.494-7.494V189.488a.468.468,0,0,0-.468-.468Zm-10.773,18.736H436.212a1.874,1.874,0,0,1,0-3.747h18.736a1.874,1.874,0,0,1,0,3.747Zm0-9.368H436.212a1.874,1.874,0,0,1,0-3.747h18.736a1.874,1.874,0,0,1,0,3.747Z" transform="translate(-398.58 -145.767)" fill="#f9a826"/>
      <path id="Path_6219" data-name="Path 6219" d="M464.693,184.874l-16.84-16.84a.234.234,0,0,0-.4.165v15.2a1.874,1.874,0,0,0,1.874,1.874h15.2a.234.234,0,0,0,.165-.4Z" transform="translate(-398.58 -145.767)" fill="#f9a826"/>
    </g>
    <g id="Group_936" data-name="Group 936" transform="translate(536.936 903)">
      <circle id="Ellipse_354" data-name="Ellipse 354" cx="47" cy="47" r="47" fill="#fff"/>
      <path id="Path_6220" data-name="Path 6220" d="M577.378,507.508a2.491,2.491,0,1,0,1.762.729A2.491,2.491,0,0,0,577.378,507.508Z" transform="translate(-523.58 -469.767)" fill="#f9a826"/>
      <path id="Path_6221" data-name="Path 6221" d="M591.245,497.548v-.008a1.9,1.9,0,0,0-1.412-1.428c-2.781-.678-7.156.045-12,1.986a38.607,38.607,0,0,0-12.56,7.953,29.925,29.925,0,0,0-2.758,3.157,12.232,12.232,0,0,0-5.466.878c-5.388,2.371-6.927,8.44-7.337,10.932a2.333,2.333,0,0,0,2.538,2.706h.012l6-.655c.007.077.016.147.022.211a3.207,3.207,0,0,0,.924,1.934l2.929,2.931a3.2,3.2,0,0,0,1.933.925l.2.021-.653,6v.012a2.333,2.333,0,0,0,2.081,2.561q.108.011.216.012a2.352,2.352,0,0,0,.387-.032c2.506-.4,8.572-1.923,10.937-7.341a12.341,12.341,0,0,0,.882-5.444,29.385,29.385,0,0,0,3.168-2.758,38.328,38.328,0,0,0,7.961-12.461C591.179,504.843,591.906,500.435,591.245,497.548Zm-9.991,16.32a5.485,5.485,0,1,1,0-7.756l0,0a5.441,5.441,0,0,1,.058,7.694Z" transform="translate(-523.58 -469.767)" fill="#f9a826"/>
      <path id="Path_6222" data-name="Path 6222" d="M561.8,528.94a1.493,1.493,0,0,0-1.027.249c-.6.408-1.2.811-1.8,1.2a1.393,1.393,0,0,1-1.96-1.867l1.134-1.96a1.493,1.493,0,0,0-1.415-2.325,5.716,5.716,0,0,0-3.325,1.629c-.342.342-1.38,1.382-1.939,5.344a33.4,33.4,0,0,0-.3,3.432,1.493,1.493,0,0,0,1.454,1.531h.076a33.577,33.577,0,0,0,3.434-.3c3.963-.56,5-1.6,5.345-1.941A5.645,5.645,0,0,0,563.1,530.6a1.493,1.493,0,0,0-1.3-1.663Z" transform="translate(-523.58 -469.767)" fill="#f9a826"/>
    </g>
    <g id="Group_937" data-name="Group 937" transform="translate(653.051 748)">
      <circle id="Ellipse_355" data-name="Ellipse 355" cx="47" cy="47" r="47" fill="#fff"/>
      <path id="Path_6223" data-name="Path 6223" d="M328.4,550.307H325a2.554,2.554,0,0,1-2.554-2.554V532.429A2.554,2.554,0,0,1,325,529.875H328.4a2.554,2.554,0,0,1,2.554,2.554v15.324A2.554,2.554,0,0,1,328.4,550.307Z" transform="translate(-297.58 -477.767)" fill="#f9a826"/>
      <path id="Path_6224" data-name="Path 6224" d="M352.242,550.307h-3.405a2.554,2.554,0,0,1-2.554-2.554v-25.54a2.554,2.554,0,0,1,2.554-2.554h3.405a2.554,2.554,0,0,1,2.554,2.554v25.54A2.554,2.554,0,0,1,352.242,550.307Z" transform="translate(-297.58 -477.767)" fill="#f9a826"/>
      <path id="Path_6225" data-name="Path 6225" d="M364.16,550.307h-3.405a2.554,2.554,0,0,1-2.554-2.554V510.3a2.554,2.554,0,0,1,2.554-2.554h3.405a2.554,2.554,0,0,1,2.554,2.554v37.458a2.554,2.554,0,0,1-2.554,2.554Z" transform="translate(-297.58 -477.767)" fill="#f9a826"/>
      <path id="Path_6226" data-name="Path 6226" d="M340.323,550.307h-3.4a2.554,2.554,0,0,1-2.554-2.554V501.781a2.554,2.554,0,0,1,2.554-2.554h3.405a2.554,2.554,0,0,1,2.554,2.554v45.972a2.554,2.554,0,0,1-2.554,2.554Z" transform="translate(-297.58 -477.767)" fill="#f9a826"/>
    </g>
    <g id="Group_935" data-name="Group 935" transform="translate(419.66 748)">
      <circle id="Ellipse_353" data-name="Ellipse 353" cx="47" cy="47" r="47" fill="#fff"/>
      <path id="Path_6227" data-name="Path 6227" d="M629.831,319.536,627.4,317.1a2.982,2.982,0,0,0-4.206-.011L606.277,332.7a3.159,3.159,0,0,0-1.058,2.149,2.992,2.992,0,0,0,.858,2.231l3.634,3.674.007.007a3.009,3.009,0,0,0,2.114.878h.11A3.129,3.129,0,0,0,614.1,340.6l15.72-16.837a2.982,2.982,0,0,0,.018-4.217Z" transform="translate(-580.58 -273.767)" fill="#f9a826"/>
      <path id="Path_6228" data-name="Path 6228" d="M649.384,314.617l-.029-.029-3.193-3.161a2,2,0,0,0-1.424-.583,2.039,2.039,0,0,0-1.192.386c0-.04.006-.079.008-.114a3.407,3.407,0,0,0-.485-2.35,24.051,24.051,0,0,0-2.311-2.678l-.007-.007a25.222,25.222,0,0,0-8.081-5.212,13,13,0,0,0-4.946-.974,9.426,9.426,0,0,0-6.033,2.113,11.174,11.174,0,0,0-1.321,1.511,1.491,1.491,0,0,0,1.738,2.268,6.932,6.932,0,0,1,.8-.245,5.914,5.914,0,0,1,1.719-.107,7.228,7.228,0,0,1,3.326,1.22,4.789,4.789,0,0,1,1.7,3.829,9.939,9.939,0,0,1-1.864,3.213,1.491,1.491,0,0,0,.135,1.957l3.206,3.206a1.491,1.491,0,0,0,2.05.058c.907-.81,2.288-2.03,2.77-2.329a3.47,3.47,0,0,1,1.37-.54,1.787,1.787,0,0,1,1.052.222.116.116,0,0,1-.029.089l-.17.161-.028.026a2.005,2.005,0,0,0-.005,2.836l.01.01,3.192,3.16a2,2,0,0,0,1.424.582,2.022,2.022,0,0,0,1.418-.578l5.171-5.108.052-.055a2.038,2.038,0,0,0-.026-2.775Z" transform="translate(-580.58 -273.767)" fill="#f9a826"/>
    </g>
    <g id="Group_938" data-name="Group 938" transform="translate(783 903)">
      <circle id="Ellipse_356" data-name="Ellipse 356" cx="47" cy="47" r="47" fill="#fff"/>
      <path id="Path_6229" data-name="Path 6229" d="M284.042,317.969a1.866,1.866,0,0,1-1.319-3.185L287,310.507l-4.277-4.278a1.866,1.866,0,1,1,2.638-2.638l5.6,5.6a1.865,1.865,0,0,1,0,2.638l-5.6,5.6A1.86,1.86,0,0,1,284.042,317.969Z" transform="translate(-229.58 -273.767)" fill="#f9a826"/>
      <path id="Path_6230" data-name="Path 6230" d="M254.193,323.565a1.866,1.866,0,0,1-1.866-1.866v-1.866a11.249,11.249,0,0,1,11.188-11.194h24.258a1.866,1.866,0,0,1,0,3.731H263.521a7.507,7.507,0,0,0-7.462,7.468v1.86a1.866,1.866,0,0,1-1.866,1.866Z" transform="translate(-229.58 -273.767)" fill="#f9a826"/>
      <path id="Path_6231" data-name="Path 6231" d="M269.118,338.49a1.86,1.86,0,0,1-1.319-.546l-5.6-5.6a1.865,1.865,0,0,1,0-2.638l5.6-5.6a1.866,1.866,0,0,1,2.638,2.638l-4.278,4.278,4.278,4.278a1.866,1.866,0,0,1-1.319,3.185Z" transform="translate(-229.58 -273.767)" fill="#f9a826"/>
      <path id="Path_6232" data-name="Path 6232" d="M265.386,332.893a1.866,1.866,0,0,1,0-3.731h24.253a7.507,7.507,0,0,0,7.462-7.468v-1.86a1.866,1.866,0,1,1,3.731,0V321.7a11.249,11.249,0,0,1-11.188,11.194Z" transform="translate(-229.58 -273.767)" fill="#f9a826"/>
    </g>
    <path id="Path_6233" data-name="Path 6233" d="M1768.332,4155.035c.232-9.049,4.432-40.6,39.122-40.3s70.376,8.726,68.775-20.512" transform="translate(-1429 -3252)" fill="none" stroke="#fff" stroke-width="5"/>
    <path id="Path_6269" data-name="Path 6269" d="M1876.281,4155.035c-.232-9.049-4.432-40.6-39.122-40.3s-70.376,8.726-68.775-20.512" transform="translate(-1046.357 -3251.665)" fill="none" stroke="#fff" stroke-width="5"/>
    <path id="Path_6266" data-name="Path 6266" d="M1775.737,4155.18c.232-9.049-2.972-40.75,31.717-40.448s70.376,8.726,68.775-20.512" transform="translate(-1183.118 -3252.22)" fill="none" stroke="#fff" stroke-width="5"/>
    <path id="Path_6265" data-name="Path 6265" d="M1876.307,4094.555c0,2.547-.191,17.747,10.151,18.169s45.492-2,57.2,0c25.17,4.309,32.7,31.644,32.7,42.2" transform="translate(-1401.348 -3252)" fill="none" stroke="#fff" stroke-width="5"/>
    <path id="Path_6268" data-name="Path 6268" d="M2262.543,4249.073c0,20.251-131.385,58.192-249.958,58.192s-246.076-33.6-246.076-58.265" transform="translate(-1429 -3252)" fill="none" stroke="#fff" stroke-width="5"/>
  </g>
</svg>
