<svg xmlns="http://www.w3.org/2000/svg" width="109.979" height="119.949" viewBox="0 0 109.979 119.949">
  <g id="Group_918" data-name="Group 918" transform="translate(-302.805 -2438.873)">
    <path id="Path_6202" data-name="Path 6202" d="M52.13,0A52.13,52.13,0,1,1,0,52.13,52.13,52.13,0,0,1,52.13,0Z" transform="translate(307.024 2453.063)" fill="#fff" stroke="#ccc" stroke-width="3"/>
    <path id="Path_6061" data-name="Path 6061" d="M388.219,85.873,353.51,127.987l51.37,60.626,34.246-40.262Z" transform="translate(-50.474 2353)" fill="#f9a826"/>
    <path id="Path_6062" data-name="Path 6062" d="M388.219,85.873,353.51,127.987l51.37,60.626,34.246-40.262Z" transform="translate(-50.705 2353)" opacity="0.1"/>
    <path id="Path_6063" data-name="Path 6063" d="M439.739,306.112h0a17.445,17.445,0,0,1,2.83-3.779l31.879-32.319s11.107-1.851,13.421,3.7l-40.726,33.321Z" transform="translate(-135.314 2175.338)" fill="#f2f2f2"/>
    <path id="Path_6064" data-name="Path 6064" d="M434.8,303.184l47.2,72.2s4.628,3.24,9.256,1.388l48.362-32.627-51.369-77.749-46.279,36.1Z" transform="translate(-132 2177.572)" fill="#f9a826"/>
    <rect id="Rectangle_1978" data-name="Rectangle 1978" width="36.475" height="0.75" transform="matrix(0.812, -0.584, 0.584, 0.812, 320.866, 2476.515)" fill="#fff"/>
    <rect id="Rectangle_1979" data-name="Rectangle 1979" width="0.75" height="70.467" transform="matrix(0.834, -0.552, 0.552, 0.834, 319.848, 2484.896)" fill="#fff"/>
    <rect id="Rectangle_1980" data-name="Rectangle 1980" width="39.061" height="0.75" transform="translate(363.442 2545.017) rotate(-36.344)" fill="#fff"/>
    <rect id="Rectangle_1981" data-name="Rectangle 1981" width="0.75" height="70.481" transform="translate(355.487 2456.673) rotate(-34.838)" fill="#fff"/>
    <rect id="Rectangle_1982" data-name="Rectangle 1982" width="49.705" height="0.463" transform="translate(307.046 2478.503) rotate(-42.545)" fill="#3f3d56"/>
    <rect id="Rectangle_1983" data-name="Rectangle 1983" width="51.054" height="0.463" transform="translate(308.444 2478.969) rotate(-41.439)" fill="#3f3d56"/>
    <rect id="Rectangle_1984" data-name="Rectangle 1984" width="51.724" height="0.463" transform="matrix(0.768, -0.64, 0.64, 0.768, 309.379, 2478.973)" fill="#3f3d56"/>
    <text id="Reading_in_all_time" data-name="Reading
in 
all time" transform="translate(330.078 2495.147) rotate(-34)" fill="#fff" font-size="10" font-family="SegoePrint, Segoe Print" letter-spacing="-0.04em"><tspan x="0" y="0">Reading</tspan><tspan x="0" y="17">in </tspan><tspan x="0" y="34">all time</tspan></text>
  </g>
</svg>
