<svg xmlns="http://www.w3.org/2000/svg" width="549.444" height="329.973" viewBox="0 0 549.444 329.973">
  <g id="undraw_Building_re_xfcm" transform="translate(0 -89.216)">
    <circle id="Ellipse_359" data-name="Ellipse 359" cx="34.816" cy="34.816" r="34.816" transform="translate(43.668 177.889)" fill="#f9a826"/>
    <path id="Path_6308" data-name="Path 6308" d="M366.431,581.924H366.4a4.629,4.629,0,0,1-4.624-4.624V305.842a4.629,4.629,0,0,1,4.624-4.624H594.878a4.629,4.629,0,0,1,4.624,4.624V516.916a4.629,4.629,0,0,1-4.588,4.624Z" transform="translate(-216.647 -172.561)" fill="#f2f2f2"/>
    <path id="Path_6312" data-name="Path 6312" d="M862.575,581.392c-.217,0-.428,0-.645-.006a55.228,55.228,0,0,1-36.391-14.224q-.554-.5-1.1-1.022l-.168-.161V461.72l.052-.11c.36-.763.725-1.516,1.091-2.268,11.315-22.973,24.512-35.623,37.161-35.623,18.24,0,32.386,25.021,39.2,39.935,9.468,20.74,16.081,46.439,16.081,62.5a55.258,55.258,0,0,1-54.645,55.238C863,581.392,862.786,581.392,862.575,581.392ZM825.36,565.513q.452.427.91.843A54.145,54.145,0,0,0,861.95,580.3c.22.005.429,0,.64.005s.4,0,.6-.005a54.35,54.35,0,0,0,53.577-54.15c0-15.917-6.572-41.431-15.983-62.044-6.7-14.677-20.574-39.3-38.206-39.3-12.212,0-25.062,12.435-36.183,35.013-.345.71-.691,1.423-1.032,2.145Z" transform="translate(-427.545 -228.421)" fill="#fff"/>
    <path id="Path_6313" data-name="Path 6313" d="M894.152,726.658a.626.626,0,0,1-.626-.626V598.262a.626.626,0,0,1,1.252,0v127.77A.626.626,0,0,1,894.152,726.658Z" transform="translate(-459.125 -307.727)" fill="#ccc"/>
    <path id="Path_6314" data-name="Path 6314" d="M297.152,726.658a.626.626,0,0,1-.626-.626V598.262a.626.626,0,1,1,1.252,0v127.77a.626.626,0,0,1-.626.626Z" transform="translate(-186.895 -307.727)" fill="#ccc"/>
    <path id="Path_6315" data-name="Path 6315" d="M867.767,611.191a.625.625,0,0,1-.473-.216l-31.478-36.3a.626.626,0,1,1,.946-.82l31.478,36.3a.626.626,0,0,1-.473,1.036Z" transform="translate(-432.739 -296.784)" fill="#ccc"/>
    <path id="Path_6316" data-name="Path 6316" d="M894.152,665.138a.626.626,0,0,1-.443-1.068L911.6,646.183a.626.626,0,1,1,.885.885l-17.887,17.887a.624.624,0,0,1-.442.183Z" transform="translate(-459.125 -329.78)" fill="#ccc"/>
    <path id="Path_6317" data-name="Path 6317" d="M961.9,815.217H915.119v-.544a23.394,23.394,0,1,1,46.787,0Zm-45.693-1.088h44.6a22.306,22.306,0,0,0-44.6,0Z" transform="translate(-468.971 -396.027)" fill="#fff"/>
    <path id="Path_6318" data-name="Path 6318" d="M951.392,809.875a.617.617,0,0,0-.618.617v6.56l-6.391-5.485a.618.618,0,0,0-.8.937l7.2,6.176v3.854a.618.618,0,0,0,1.235,0V810.492a.618.618,0,0,0-.618-.617Z" transform="translate(-481.85 -404.507)" fill="#fff"/>
    <path id="Path_6319" data-name="Path 6319" d="M240.906,815.217H194.119v-.544a23.394,23.394,0,1,1,46.787,0Zm-45.693-1.088h44.6a22.306,22.306,0,0,0-44.6,0Z" transform="translate(-140.198 -396.027)" fill="#fff"/>
    <path id="Path_6320" data-name="Path 6320" d="M230.392,809.875a.617.617,0,0,0-.618.617v6.56l-6.391-5.485a.618.618,0,0,0-.8.937l7.2,6.176v3.854a.618.618,0,0,0,1.235,0V810.492a.618.618,0,0,0-.618-.617Z" transform="translate(-153.077 -404.507)" fill="#fff"/>
    <path id="Path_6321" data-name="Path 6321" d="M252.344,581.392c-.217,0-.428,0-.645-.006a55.26,55.26,0,0,1-54.637-55.238c0-16.057,6.613-41.756,16.082-62.5,6.809-14.914,20.957-39.935,39.2-39.935,7.514,0,15.081,4.283,22.49,12.73.367.417.736.845,1.1,1.285l.124.151V576.054l-.307.148c-.366.177-.738.344-1.109.5a54.731,54.731,0,0,1-21.666,4.68C252.772,581.392,252.555,581.392,252.344,581.392Zm0-156.586c-17.635,0-31.51,24.622-38.21,39.3-9.411,20.612-15.983,46.126-15.983,62.044a54.355,54.355,0,0,0,53.569,54.15c.22.006.425.007.639.005.2,0,.4,0,.6-.005A53.669,53.669,0,0,0,274.2,575.71c.257-.111.512-.224.764-.342V438.276c-.315-.378-.634-.748-.952-1.11C266.822,428.965,259.531,424.806,252.344,424.806Z" transform="translate(-141.54 -228.421)" fill="#fff"/>
    <path id="Path_6322" data-name="Path 6322" d="M271.767,611.191a.624.624,0,0,1-.473-.216l-31.478-36.3a.626.626,0,1,1,.946-.82l31.478,36.3a.626.626,0,0,1-.473,1.036Z" transform="translate(-160.966 -296.784)" fill="#ccc"/>
    <path id="Path_6323" data-name="Path 6323" d="M298.152,665.138a.626.626,0,0,1-.443-1.068L315.6,646.183a.626.626,0,0,1,.885.885L298.6,664.954a.623.623,0,0,1-.443.183Z" transform="translate(-187.351 -329.78)" fill="#ccc"/>
    <path id="Path_6324" data-name="Path 6324" d="M366.8,234.158l.4.794a2.406,2.406,0,0,1,.272,1.11V257.55h19.04V236.062a2.406,2.406,0,0,1,.272-1.11l.4-.794Zm18.627,1.9v20.4H368.56v-20.4a3.416,3.416,0,0,0-.1-.816h17.06a3.415,3.415,0,0,0-.1.816Zm5.309-1.9.4.794a2.406,2.406,0,0,1,.272,1.11V257.55h19.04V236.062a2.406,2.406,0,0,1,.272-1.11l.4-.794Zm18.627,1.9v20.4H392.5v-20.4a3.416,3.416,0,0,0-.1-.816h17.06a3.415,3.415,0,0,0-.1.816Zm5.309-1.9.4.794a2.406,2.406,0,0,1,.272,1.11V257.55h19.04V236.062a2.407,2.407,0,0,1,.272-1.11l.4-.794Zm18.627,1.9v20.4H416.432v-20.4a3.413,3.413,0,0,0-.1-.816h17.06a3.416,3.416,0,0,0-.1.816Zm5.309-1.9.4.794a2.406,2.406,0,0,1,.272,1.11V257.55h19.04V236.062a2.407,2.407,0,0,1,.272-1.11l.4-.794Zm18.627,1.9v20.4H440.368v-20.4a3.413,3.413,0,0,0-.1-.816h17.06a3.416,3.416,0,0,0-.1.816Zm5.309-1.9.4.794a2.406,2.406,0,0,1,.272,1.11V257.55h19.04V236.062a2.406,2.406,0,0,1,.272-1.11l.4-.794Zm18.627,1.9v20.4H464.3v-20.4a3.413,3.413,0,0,0-.1-.816h17.06a3.419,3.419,0,0,0-.1.816Zm5.309-1.9.4.794a2.407,2.407,0,0,1,.272,1.11V257.55h19.04V236.062a2.406,2.406,0,0,1,.272-1.11l.4-.794Zm18.627,1.9v20.4H488.241v-20.4a3.42,3.42,0,0,0-.1-.816H505.2a3.413,3.413,0,0,0-.1.816Zm5.309-1.9.4.794a2.406,2.406,0,0,1,.272,1.11V257.55h19.04V236.062a2.407,2.407,0,0,1,.272-1.11l.4-.794Zm18.627,1.9v20.4H512.177v-20.4a3.413,3.413,0,0,0-.1-.816h17.06a3.416,3.416,0,0,0-.1.816Zm5.309-1.9.4.794a2.4,2.4,0,0,1,.272,1.11V257.55h19.04V236.062a2.406,2.406,0,0,1,.272-1.11l.4-.794Zm18.627,1.9v20.4H536.113v-20.4a3.413,3.413,0,0,0-.1-.816h17.06a3.416,3.416,0,0,0-.1.816Zm5.309-1.9.4.794a2.407,2.407,0,0,1,.272,1.11V257.55H578V236.062a2.407,2.407,0,0,1,.272-1.11l.4-.794Zm18.627,1.9v20.4H560.049v-20.4a3.416,3.416,0,0,0-.1-.816h17.06a3.413,3.413,0,0,0-.1.816Zm-18.627-1.9.4.794a2.407,2.407,0,0,1,.272,1.11V257.55H578V236.062a2.407,2.407,0,0,1,.272-1.11l.4-.794Zm18.627,1.9v20.4H560.049v-20.4a3.416,3.416,0,0,0-.1-.816h17.06a3.413,3.413,0,0,0-.1.816Zm-42.563-1.9.4.794a2.406,2.406,0,0,1,.272,1.11V257.55h19.04V236.062a2.407,2.407,0,0,1,.272-1.11l.4-.794Zm18.627,1.9v20.4H536.113v-20.4a3.41,3.41,0,0,0-.1-.816h17.06a3.416,3.416,0,0,0-.1.816Zm-42.563-1.9.4.794a2.406,2.406,0,0,1,.272,1.11V257.55h19.04V236.062a2.407,2.407,0,0,1,.272-1.11l.4-.794Zm18.627,1.9v20.4H512.177v-20.4a3.413,3.413,0,0,0-.1-.816h17.06a3.413,3.413,0,0,0-.1.816Zm-42.563-1.9.4.794a2.406,2.406,0,0,1,.272,1.11V257.55h19.04V236.062a2.406,2.406,0,0,1,.272-1.11l.4-.794Zm18.627,1.9v20.4H488.24v-20.4a3.413,3.413,0,0,0-.1-.816H505.2a3.413,3.413,0,0,0-.1.816Zm-42.563-1.9.4.794a2.4,2.4,0,0,1,.272,1.11V257.55h19.04V236.062a2.407,2.407,0,0,1,.272-1.11l.4-.794Zm18.627,1.9v20.4H464.3v-20.4a3.416,3.416,0,0,0-.1-.816h17.06a3.413,3.413,0,0,0-.1.816Zm-42.563-1.9.4.794a2.407,2.407,0,0,1,.272,1.11V257.55h19.04V236.062a2.407,2.407,0,0,1,.272-1.11l.4-.794Zm18.627,1.9v20.4H440.368v-20.4a3.42,3.42,0,0,0-.1-.816h17.06a3.413,3.413,0,0,0-.1.816Zm-42.563-1.9.4.794a2.406,2.406,0,0,1,.272,1.11V257.55h19.04V236.062a2.408,2.408,0,0,1,.272-1.11l.4-.794Zm18.627,1.9v20.4H416.432v-20.4a3.413,3.413,0,0,0-.1-.816h17.06a3.419,3.419,0,0,0-.1.816Zm-42.563-1.9.4.794a2.406,2.406,0,0,1,.272,1.11V257.55h19.04V236.062a2.406,2.406,0,0,1,.272-1.11l.4-.794Zm18.627,1.9v20.4H392.5v-20.4a3.413,3.413,0,0,0-.1-.816h17.06a3.414,3.414,0,0,0-.1.816Zm-42.563-1.9.4.794a2.406,2.406,0,0,1,.272,1.11V257.55h19.04V236.062a2.406,2.406,0,0,1,.272-1.11l.4-.794Zm18.627,1.9v20.4H368.56v-20.4a3.415,3.415,0,0,0-.1-.816h17.06a3.416,3.416,0,0,0-.1.816Zm172.863-1.9.4.794a2.406,2.406,0,0,1,.272,1.11V257.55H578V236.062a2.407,2.407,0,0,1,.272-1.11l.4-.794Zm18.627,1.9v20.4H560.049v-20.4a3.413,3.413,0,0,0-.1-.816h17.06a3.413,3.413,0,0,0-.1.816Zm-42.563-1.9.4.794a2.406,2.406,0,0,1,.272,1.11V257.55h19.04V236.062a2.406,2.406,0,0,1,.272-1.11l.4-.794Zm18.627,1.9v20.4H536.113v-20.4a3.413,3.413,0,0,0-.1-.816h17.06a3.416,3.416,0,0,0-.1.816Zm-42.563-1.9.4.794a2.4,2.4,0,0,1,.272,1.11V257.55h19.04V236.062a2.406,2.406,0,0,1,.272-1.11l.4-.794Zm18.627,1.9v20.4H512.177v-20.4a3.413,3.413,0,0,0-.1-.816h17.06a3.413,3.413,0,0,0-.1.816Zm-42.563-1.9.4.794a2.407,2.407,0,0,1,.272,1.11V257.55h19.04V236.062a2.406,2.406,0,0,1,.272-1.11l.4-.794Zm18.627,1.9v20.4H488.241v-20.4a3.42,3.42,0,0,0-.1-.816H505.2a3.413,3.413,0,0,0-.1.816Zm-42.563-1.9.4.794a2.407,2.407,0,0,1,.272,1.11V257.55h19.04V236.062a2.406,2.406,0,0,1,.272-1.11l.4-.794Zm18.627,1.9v20.4H464.3v-20.4a3.413,3.413,0,0,0-.1-.816h17.06a3.419,3.419,0,0,0-.1.816Zm-42.563-1.9.4.794a2.406,2.406,0,0,1,.272,1.11V257.55h19.04V236.062a2.407,2.407,0,0,1,.272-1.11l.4-.794Zm18.627,1.9v20.4H440.368v-20.4a3.413,3.413,0,0,0-.1-.816h17.06a3.416,3.416,0,0,0-.1.816Zm-42.563-1.9.4.794a2.406,2.406,0,0,1,.272,1.11V257.55h19.04V236.062a2.407,2.407,0,0,1,.272-1.11l.4-.794Zm18.627,1.9v20.4H416.432v-20.4a3.416,3.416,0,0,0-.1-.816h17.06a3.416,3.416,0,0,0-.1.816Zm-42.563-1.9.4.794a2.406,2.406,0,0,1,.272,1.11V257.55h19.04V236.062a2.406,2.406,0,0,1,.272-1.11l.4-.794Zm18.627,1.9v20.4H392.5v-20.4a3.416,3.416,0,0,0-.1-.816h17.06a3.415,3.415,0,0,0-.1.816Zm-42.563-1.9.4.794a2.406,2.406,0,0,1,.272,1.11V257.55h19.04V236.062a2.406,2.406,0,0,1,.272-1.11l.4-.794Zm18.627,1.9v20.4H368.56v-20.4a3.415,3.415,0,0,0-.1-.816h17.06a3.413,3.413,0,0,0-.1.816Zm172.863-1.9.4.794a2.4,2.4,0,0,1,.272,1.11V257.55H578V236.062a2.407,2.407,0,0,1,.272-1.11l.4-.794Zm18.627,1.9v20.4H560.049v-20.4a3.413,3.413,0,0,0-.1-.816h17.06a3.413,3.413,0,0,0-.1.816Zm-42.563-1.9.4.794a2.407,2.407,0,0,1,.272,1.11V257.55h19.04V236.062a2.407,2.407,0,0,1,.272-1.11l.4-.794Zm18.627,1.9v20.4H536.113v-20.4a3.42,3.42,0,0,0-.1-.816h17.06a3.413,3.413,0,0,0-.1.816Zm-42.563-1.9.4.794a2.406,2.406,0,0,1,.272,1.11V257.55h19.04V236.062a2.407,2.407,0,0,1,.272-1.11l.4-.794Zm18.627,1.9v20.4H512.177v-20.4a3.413,3.413,0,0,0-.1-.816h17.06a3.416,3.416,0,0,0-.1.816Zm-42.563-1.9.4.794a2.406,2.406,0,0,1,.272,1.11V257.55h19.04V236.062a2.407,2.407,0,0,1,.272-1.11l.4-.794Zm18.627,1.9v20.4H488.241v-20.4a3.413,3.413,0,0,0-.1-.816H505.2a3.416,3.416,0,0,0-.1.816Zm-42.563-1.9.4.794a2.406,2.406,0,0,1,.272,1.11V257.55h19.04V236.062a2.407,2.407,0,0,1,.272-1.11l.4-.794Zm18.627,1.9v20.4H464.3v-20.4a3.413,3.413,0,0,0-.1-.816h17.06a3.419,3.419,0,0,0-.1.816Zm-42.563-1.9.4.794a2.407,2.407,0,0,1,.272,1.11V257.55h19.04V236.062a2.407,2.407,0,0,1,.272-1.11l.4-.794Zm18.627,1.9v20.4H440.368v-20.4a3.413,3.413,0,0,0-.1-.816h17.06a3.413,3.413,0,0,0-.1.816Zm-42.563-1.9.4.794a2.406,2.406,0,0,1,.272,1.11V257.55h19.04V236.062a2.407,2.407,0,0,1,.272-1.11l.4-.794Zm18.627,1.9v20.4H416.432v-20.4a3.416,3.416,0,0,0-.1-.816h17.06a3.413,3.413,0,0,0-.1.816Zm-42.563-1.9.4.794a2.406,2.406,0,0,1,.272,1.11V257.55h19.04V236.062a2.406,2.406,0,0,1,.272-1.11l.4-.794Zm18.627,1.9v20.4H392.5v-20.4a3.416,3.416,0,0,0-.1-.816h17.06a3.415,3.415,0,0,0-.1.816Zm-42.563-1.9.4.794a2.406,2.406,0,0,1,.272,1.11V257.55h19.04V236.062a2.406,2.406,0,0,1,.272-1.11l.4-.794Zm18.627,1.9v20.4H368.56v-20.4a3.413,3.413,0,0,0-.1-.816h17.06a3.416,3.416,0,0,0-.1.816Zm172.863-1.9.4.794a2.407,2.407,0,0,1,.272,1.11V257.55H578V236.062a2.406,2.406,0,0,1,.272-1.11l.4-.794Zm18.627,1.9v20.4H560.049v-20.4a3.413,3.413,0,0,0-.1-.816h17.06a3.416,3.416,0,0,0-.1.816Zm-42.563-1.9.4.794a2.406,2.406,0,0,1,.272,1.11V257.55h19.04V236.062a2.407,2.407,0,0,1,.272-1.11l.4-.794Zm18.627,1.9v20.4H536.113v-20.4a3.413,3.413,0,0,0-.1-.816h17.06a3.416,3.416,0,0,0-.1.816Zm-42.563-1.9.4.794a2.406,2.406,0,0,1,.272,1.11V257.55h19.04V236.062a2.407,2.407,0,0,1,.272-1.11l.4-.794Zm18.627,1.9v20.4H512.177v-20.4a3.413,3.413,0,0,0-.1-.816h17.06a3.416,3.416,0,0,0-.1.816Zm-42.563-1.9.4.794a2.4,2.4,0,0,1,.272,1.11V257.55h19.04V236.062a2.406,2.406,0,0,1,.272-1.11l.4-.794Zm18.627,1.9v20.4H488.241v-20.4a3.413,3.413,0,0,0-.1-.816H505.2a3.413,3.413,0,0,0-.1.816Zm-42.563-1.9.4.794a2.407,2.407,0,0,1,.272,1.11V257.55h19.04V236.062a2.406,2.406,0,0,1,.272-1.11l.4-.794Zm18.627,1.9v20.4H464.3v-20.4a3.42,3.42,0,0,0-.1-.816h17.06a3.416,3.416,0,0,0-.1.816Zm-42.563-1.9.4.794a2.406,2.406,0,0,1,.272,1.11V257.55h19.04V236.062a2.406,2.406,0,0,1,.272-1.11l.4-.794Zm18.627,1.9v20.4H440.368v-20.4a3.413,3.413,0,0,0-.1-.816h17.06a3.419,3.419,0,0,0-.1.816Zm-42.563-1.9.4.794a2.406,2.406,0,0,1,.272,1.11V257.55h19.04V236.062a2.407,2.407,0,0,1,.272-1.11l.4-.794Zm18.627,1.9v20.4H416.432v-20.4a3.416,3.416,0,0,0-.1-.816h17.06a3.416,3.416,0,0,0-.1.816Zm-42.563-1.9.4.794a2.406,2.406,0,0,1,.272,1.11V257.55h19.04V236.062a2.406,2.406,0,0,1,.272-1.11l.4-.794Zm18.627,1.9v20.4H392.5v-20.4a3.415,3.415,0,0,0-.1-.816h17.06a3.416,3.416,0,0,0-.1.816Zm-42.563-1.9.4.794a2.406,2.406,0,0,1,.272,1.11V257.55h19.04V236.062a2.406,2.406,0,0,1,.272-1.11l.4-.794Zm18.627,1.9v20.4H368.56v-20.4a3.416,3.416,0,0,0-.1-.816h17.06a3.416,3.416,0,0,0-.1.816Zm172.863-1.9.4.794a2.406,2.406,0,0,1,.272,1.11V257.55H578V236.062a2.407,2.407,0,0,1,.272-1.11l.4-.794Zm18.627,1.9v20.4H560.049v-20.4a3.413,3.413,0,0,0-.1-.816h17.06a3.419,3.419,0,0,0-.1.816Zm-42.16-1.11a2.406,2.406,0,0,1,.272,1.11V257.55h19.04V236.062a2.408,2.408,0,0,1,.272-1.11l.4-.794H534.35Zm18.322.294a3.416,3.416,0,0,0-.1.816v20.4H536.113v-20.4a3.413,3.413,0,0,0-.1-.816Zm-42.258-.294a2.406,2.406,0,0,1,.272,1.11V257.55h19.04V236.062a2.407,2.407,0,0,1,.272-1.11l.4-.794h-20.39Zm18.322.294a3.416,3.416,0,0,0-.1.816v20.4H512.177v-20.4a3.416,3.416,0,0,0-.1-.816Zm-42.258-.294a2.406,2.406,0,0,1,.272,1.11V257.55h19.04V236.062a2.406,2.406,0,0,1,.272-1.11l.4-.794h-20.39Zm18.322.294a3.416,3.416,0,0,0-.1.816v20.4H488.241v-20.4a3.416,3.416,0,0,0-.1-.816Zm-42.258-.294a2.4,2.4,0,0,1,.272,1.11V257.55h19.04V236.062a2.406,2.406,0,0,1,.272-1.11l.4-.794h-20.39Zm18.322.294a3.419,3.419,0,0,0-.1.816v20.4H464.3v-20.4a3.413,3.413,0,0,0-.1-.816Zm-42.258-.294a2.407,2.407,0,0,1,.272,1.11V257.55h19.04V236.062a2.406,2.406,0,0,1,.272-1.11l.4-.794h-20.39Zm18.322.294a3.416,3.416,0,0,0-.1.816v20.4H440.368v-20.4a3.413,3.413,0,0,0-.1-.816Zm-42.258-.294a2.406,2.406,0,0,1,.272,1.11V257.55h19.04V236.062a2.406,2.406,0,0,1,.272-1.11l.4-.794h-20.39Zm18.322.294a3.416,3.416,0,0,0-.1.816v20.4H416.432v-20.4a3.413,3.413,0,0,0-.1-.816Zm-42.258-.294a2.406,2.406,0,0,1,.272,1.11V257.55h19.04V236.062a2.406,2.406,0,0,1,.272-1.11l.4-.794h-20.39Zm18.322.294a3.416,3.416,0,0,0-.1.816v20.4H392.5v-20.4a3.415,3.415,0,0,0-.1-.816Zm-42.258-.294a2.406,2.406,0,0,1,.272,1.11V257.55h19.04V236.062a2.406,2.406,0,0,1,.272-1.11l.4-.794H366.8Zm18.322.294a3.415,3.415,0,0,0-.1.816v20.4H368.56v-20.4a3.416,3.416,0,0,0-.1-.816Zm173.167-.294a2.406,2.406,0,0,1,.272,1.11V257.55H578V236.062a2.407,2.407,0,0,1,.272-1.11l.4-.794h-20.39Zm18.322.294a3.416,3.416,0,0,0-.1.816v20.4H560.049v-20.4a3.416,3.416,0,0,0-.1-.816Zm-42.258-.294a2.406,2.406,0,0,1,.272,1.11V257.55h19.04V236.062a2.406,2.406,0,0,1,.272-1.11l.4-.794H534.35Zm18.322.294a3.416,3.416,0,0,0-.1.816v20.4H536.113v-20.4a3.416,3.416,0,0,0-.1-.816Zm-42.258-.294a2.4,2.4,0,0,1,.272,1.11V257.55h19.04V236.062a2.407,2.407,0,0,1,.272-1.11l.4-.794h-20.39Zm18.322.294a3.416,3.416,0,0,0-.1.816v20.4H512.177v-20.4a3.413,3.413,0,0,0-.1-.816Zm-42.258-.294a2.407,2.407,0,0,1,.272,1.11V257.55h19.04V236.062a2.407,2.407,0,0,1,.272-1.11l.4-.794h-20.39Zm18.322.294a3.416,3.416,0,0,0-.1.816v20.4H488.241v-20.4a3.413,3.413,0,0,0-.1-.816Zm-42.258-.294a2.406,2.406,0,0,1,.272,1.11V257.55h19.04V236.062a2.407,2.407,0,0,1,.272-1.11l.4-.794h-20.39Zm18.322.294a3.416,3.416,0,0,0-.1.816v20.4H464.3v-20.4a3.413,3.413,0,0,0-.1-.816Zm-42.258-.294a2.406,2.406,0,0,1,.272,1.11V257.55h19.04V236.062a2.407,2.407,0,0,1,.272-1.11l.4-.794h-20.39Zm18.322.294a3.416,3.416,0,0,0-.1.816v20.4H440.369v-20.4a3.416,3.416,0,0,0-.1-.816Zm-42.258-.294a2.406,2.406,0,0,1,.272,1.11V257.55h19.04V236.062a2.406,2.406,0,0,1,.272-1.11l.4-.794h-20.39Zm18.322.294a3.416,3.416,0,0,0-.1.816v20.4H416.432v-20.4a3.416,3.416,0,0,0-.1-.816Zm-42.258-.294a2.406,2.406,0,0,1,.272,1.11V257.55h19.04V236.062a2.406,2.406,0,0,1,.272-1.11l.4-.794h-20.39Zm18.322.294a3.416,3.416,0,0,0-.1.816v20.4H392.5v-20.4a3.415,3.415,0,0,0-.1-.816Zm-42.258-.294a2.406,2.406,0,0,1,.272,1.11V257.55h19.04V236.062a2.406,2.406,0,0,1,.272-1.11l.4-.794H366.8Zm18.322.294a3.413,3.413,0,0,0-.1.816v20.4H368.56v-20.4a3.415,3.415,0,0,0-.1-.816Zm214.24,25.568h-6.484a6,6,0,0,0-5.756-4.352h-3.536v-20.4a3.4,3.4,0,0,0-.245-1.278,3.258,3.258,0,0,0-1.659-6.066H363.392a3.258,3.258,0,0,0-1.659,6.066,3.4,3.4,0,0,0-.245,1.278v20.4h-3.536a6,6,0,0,0-5.756,4.352h-7.028a4.9,4.9,0,0,0-4.9,4.9V552.944a4.907,4.907,0,0,0,4.9,4.9H599.762a4.9,4.9,0,0,0,4.9-4.9V265.71a4.9,4.9,0,0,0-4.9-4.9Zm3.808,292.13a3.811,3.811,0,0,1-2.486,3.569,3.656,3.656,0,0,1-1.322.239H345.168a3.656,3.656,0,0,1-1.322-.239,3.811,3.811,0,0,1-2.486-3.569V265.71a3.812,3.812,0,0,1,3.808-3.808h7.9l.087-.435a4.913,4.913,0,0,1,4.8-3.917h4.624V236.062a2.445,2.445,0,0,1,.348-1.257l.337-.56-.615-.228a2.17,2.17,0,0,1,.745-4.211h218.69a2.17,2.17,0,0,1,.745,4.211l-.615.228.337.56a2.442,2.442,0,0,1,.348,1.257V257.55h4.624a4.913,4.913,0,0,1,4.8,3.917l.087.435h7.355a3.812,3.812,0,0,1,3.808,3.808ZM366.8,234.158l.4.794a2.407,2.407,0,0,1,.272,1.11V257.55h19.04V236.062a2.406,2.406,0,0,1,.272-1.11l.4-.794Zm18.627,1.9v20.4H368.56v-20.4a3.413,3.413,0,0,0-.1-.816h17.06a3.415,3.415,0,0,0-.1.816Zm5.309-1.9.4.794a2.406,2.406,0,0,1,.272,1.11V257.55h19.04V236.062a2.406,2.406,0,0,1,.272-1.11l.4-.794Zm18.627,1.9v20.4H392.5v-20.4a3.416,3.416,0,0,0-.1-.816h17.06a3.415,3.415,0,0,0-.1.816Zm5.309-1.9.4.794a2.406,2.406,0,0,1,.272,1.11V257.55h19.04V236.062a2.407,2.407,0,0,1,.272-1.11l.4-.794Zm18.627,1.9v20.4H416.433v-20.4a3.416,3.416,0,0,0-.1-.816h17.06a3.413,3.413,0,0,0-.1.816Zm5.309-1.9.4.794a2.406,2.406,0,0,1,.272,1.11V257.55h19.04V236.062a2.407,2.407,0,0,1,.272-1.11l.4-.794Zm18.627,1.9v20.4H440.369v-20.4a3.413,3.413,0,0,0-.1-.816h17.06a3.416,3.416,0,0,0-.1.816Zm5.309-1.9.4.794a2.406,2.406,0,0,1,.272,1.11V257.55h19.04V236.062a2.407,2.407,0,0,1,.272-1.11l.4-.794Zm18.627,1.9v20.4H464.3v-20.4a3.413,3.413,0,0,0-.1-.816h17.06a3.41,3.41,0,0,0-.1.816Zm5.309-1.9.4.794a2.4,2.4,0,0,1,.272,1.11V257.55h19.04V236.062a2.407,2.407,0,0,1,.272-1.11l.4-.794Zm18.627,1.9v20.4H488.241v-20.4a3.416,3.416,0,0,0-.1-.816H505.2a3.413,3.413,0,0,0-.1.816Zm5.309-1.9.4.794a2.406,2.406,0,0,1,.272,1.11V257.55h19.04V236.062a2.406,2.406,0,0,1,.272-1.11l.4-.794Zm18.627,1.9v20.4H512.177v-20.4a3.413,3.413,0,0,0-.1-.816h17.06a3.416,3.416,0,0,0-.1.816Zm5.309-1.9.4.794a2.406,2.406,0,0,1,.272,1.11V257.55h19.04V236.062a2.407,2.407,0,0,1,.272-1.11l.4-.794Zm18.627,1.9v20.4H536.113v-20.4a3.413,3.413,0,0,0-.1-.816h17.06a3.413,3.413,0,0,0-.1.816Zm5.309-1.9.4.794a2.406,2.406,0,0,1,.272,1.11V257.55H578V236.062a2.406,2.406,0,0,1,.272-1.11l.4-.794Zm18.627,1.9v20.4H560.049v-20.4a3.416,3.416,0,0,0-.1-.816h17.06a3.416,3.416,0,0,0-.1.816Zm-210.116-1.9.4.794a2.406,2.406,0,0,1,.272,1.11V257.55h19.04V236.062a2.406,2.406,0,0,1,.272-1.11l.4-.794Zm18.627,1.9v20.4H368.56v-20.4a3.415,3.415,0,0,0-.1-.816h17.06a3.415,3.415,0,0,0-.1.816Zm5.309-1.9.4.794a2.406,2.406,0,0,1,.272,1.11V257.55h19.04V236.062a2.406,2.406,0,0,1,.272-1.11l.4-.794Zm18.627,1.9v20.4H392.5v-20.4a3.415,3.415,0,0,0-.1-.816h17.06a3.413,3.413,0,0,0-.1.816Zm5.309-1.9.4.794a2.407,2.407,0,0,1,.272,1.11V257.55h19.04V236.062a2.406,2.406,0,0,1,.272-1.11l.4-.794Zm18.627,1.9v20.4H416.432v-20.4a3.413,3.413,0,0,0-.1-.816h17.06a3.413,3.413,0,0,0-.1.816Zm5.309-1.9.4.794a2.407,2.407,0,0,1,.272,1.11V257.55h19.04V236.062a2.406,2.406,0,0,1,.272-1.11l.4-.794Zm18.627,1.9v20.4H440.369v-20.4a3.413,3.413,0,0,0-.1-.816h17.06a3.416,3.416,0,0,0-.1.816Zm5.309-1.9.4.794a2.406,2.406,0,0,1,.272,1.11V257.55h19.04V236.062a2.407,2.407,0,0,1,.272-1.11l.4-.794Zm18.627,1.9v20.4H464.3v-20.4a3.416,3.416,0,0,0-.1-.816h17.06a3.413,3.413,0,0,0-.1.816Zm5.309-1.9.4.794a2.406,2.406,0,0,1,.272,1.11V257.55h19.04V236.062a2.407,2.407,0,0,1,.272-1.11l.4-.794Zm18.627,1.9v20.4H488.241v-20.4a3.413,3.413,0,0,0-.1-.816H505.2a3.416,3.416,0,0,0-.1.816Zm5.309-1.9.4.794a2.4,2.4,0,0,1,.272,1.11V257.55h19.04V236.062a2.407,2.407,0,0,1,.272-1.11l.4-.794Zm18.627,1.9v20.4H512.177v-20.4a3.416,3.416,0,0,0-.1-.816h17.06a3.416,3.416,0,0,0-.1.816Zm5.309-1.9.4.794a2.407,2.407,0,0,1,.272,1.11V257.55h19.04V236.062a2.406,2.406,0,0,1,.272-1.11l.4-.794Zm18.627,1.9v20.4H536.113v-20.4a3.413,3.413,0,0,0-.1-.816h17.06a3.416,3.416,0,0,0-.1.816Zm5.309-1.9.4.794a2.406,2.406,0,0,1,.272,1.11V257.55H578V236.062a2.407,2.407,0,0,1,.272-1.11l.4-.794Zm18.627,1.9v20.4H560.049v-20.4a3.413,3.413,0,0,0-.1-.816h17.06a3.419,3.419,0,0,0-.1.816Zm-210.116-1.9.4.794a2.406,2.406,0,0,1,.272,1.11V257.55h19.04V236.062a2.406,2.406,0,0,1,.272-1.11l.4-.794Zm18.627,1.9v20.4H368.56v-20.4a3.415,3.415,0,0,0-.1-.816h17.06a3.415,3.415,0,0,0-.1.816Zm5.309-1.9.4.794a2.406,2.406,0,0,1,.272,1.11V257.55h19.04V236.062a2.406,2.406,0,0,1,.272-1.11l.4-.794Zm18.627,1.9v20.4H392.5v-20.4a3.415,3.415,0,0,0-.1-.816h17.06a3.416,3.416,0,0,0-.1.816Zm5.309-1.9.4.794a2.406,2.406,0,0,1,.272,1.11V257.55h19.04V236.062a2.406,2.406,0,0,1,.272-1.11l.4-.794Zm18.627,1.9v20.4H416.432v-20.4a3.416,3.416,0,0,0-.1-.816h17.06a3.416,3.416,0,0,0-.1.816Zm5.309-1.9.4.794a2.406,2.406,0,0,1,.272,1.11V257.55h19.04V236.062a2.407,2.407,0,0,1,.272-1.11l.4-.794Zm18.627,1.9v20.4H440.369v-20.4a3.413,3.413,0,0,0-.1-.816h17.06a3.416,3.416,0,0,0-.1.816Zm5.309-1.9.4.794a2.407,2.407,0,0,1,.272,1.11V257.55h19.04V236.062a2.406,2.406,0,0,1,.272-1.11l.4-.794Zm18.627,1.9v20.4H464.3v-20.4a3.413,3.413,0,0,0-.1-.816h17.06a3.41,3.41,0,0,0-.1.816Zm5.309-1.9.4.794a2.407,2.407,0,0,1,.272,1.11V257.55h19.04V236.062a2.406,2.406,0,0,1,.272-1.11l.4-.794Zm18.627,1.9v20.4H488.241v-20.4a3.416,3.416,0,0,0-.1-.816H505.2a3.413,3.413,0,0,0-.1.816Zm5.309-1.9.4.794a2.406,2.406,0,0,1,.272,1.11V257.55h19.04V236.062a2.407,2.407,0,0,1,.272-1.11l.4-.794Zm18.627,1.9v20.4H512.177v-20.4a3.413,3.413,0,0,0-.1-.816h17.06a3.416,3.416,0,0,0-.1.816Zm5.309-1.9.4.794a2.4,2.4,0,0,1,.272,1.11V257.55h19.04V236.062a2.407,2.407,0,0,1,.272-1.11l.4-.794Zm18.627,1.9v20.4H536.113v-20.4a3.413,3.413,0,0,0-.1-.816h17.06a3.416,3.416,0,0,0-.1.816Zm5.309-1.9.4.794a2.407,2.407,0,0,1,.272,1.11V257.55H578V236.062a2.406,2.406,0,0,1,.272-1.11l.4-.794Zm18.627,1.9v20.4H560.049v-20.4a3.413,3.413,0,0,0-.1-.816h17.06a3.416,3.416,0,0,0-.1.816Zm-210.116-1.9.4.794a2.406,2.406,0,0,1,.272,1.11V257.55h19.04V236.062a2.406,2.406,0,0,1,.272-1.11l.4-.794Zm18.627,1.9v20.4H368.56v-20.4a3.415,3.415,0,0,0-.1-.816h17.06a3.415,3.415,0,0,0-.1.816Zm5.309-1.9.4.794a2.406,2.406,0,0,1,.272,1.11V257.55h19.04V236.062a2.406,2.406,0,0,1,.272-1.11l.4-.794Zm18.627,1.9v20.4H392.5v-20.4a3.415,3.415,0,0,0-.1-.816h17.06a3.413,3.413,0,0,0-.1.816Zm5.309-1.9.4.794a2.406,2.406,0,0,1,.272,1.11V257.55h19.04V236.062a2.407,2.407,0,0,1,.272-1.11l.4-.794Zm18.627,1.9v20.4H416.432v-20.4a3.416,3.416,0,0,0-.1-.816h17.06a3.413,3.413,0,0,0-.1.816Zm5.309-1.9.4.794a2.407,2.407,0,0,1,.272,1.11V257.55h19.04V236.062a2.406,2.406,0,0,1,.272-1.11l.4-.794Zm18.627,1.9v20.4H440.368v-20.4a3.416,3.416,0,0,0-.1-.816h17.06a3.416,3.416,0,0,0-.1.816Zm5.309-1.9.4.794a2.406,2.406,0,0,1,.272,1.11V257.55h19.04V236.062a2.407,2.407,0,0,1,.272-1.11l.4-.794Zm18.627,1.9v20.4H464.3v-20.4a3.413,3.413,0,0,0-.1-.816h17.06a3.413,3.413,0,0,0-.1.816Zm5.309-1.9.4.794a2.4,2.4,0,0,1,.272,1.11V257.55h19.04V236.062a2.406,2.406,0,0,1,.272-1.11l.4-.794Zm18.627,1.9v20.4H488.241v-20.4a3.413,3.413,0,0,0-.1-.816H505.2a3.413,3.413,0,0,0-.1.816Zm5.309-1.9.4.794a2.407,2.407,0,0,1,.272,1.11V257.55h19.04V236.062a2.407,2.407,0,0,1,.272-1.11l.4-.794Zm18.627,1.9v20.4H512.177v-20.4a3.416,3.416,0,0,0-.1-.816h17.06a3.416,3.416,0,0,0-.1.816Zm5.309-1.9.4.794a2.406,2.406,0,0,1,.272,1.11V257.55h19.04V236.062a2.407,2.407,0,0,1,.272-1.11l.4-.794Zm18.627,1.9v20.4H536.113v-20.4a3.413,3.413,0,0,0-.1-.816h17.06a3.419,3.419,0,0,0-.1.816Zm5.309-1.9.4.794a2.4,2.4,0,0,1,.272,1.11V257.55H578V236.062a2.407,2.407,0,0,1,.272-1.11l.4-.794Zm18.627,1.9v20.4H560.049v-20.4a3.413,3.413,0,0,0-.1-.816h17.06a3.413,3.413,0,0,0-.1.816Z" transform="translate(-206.843 -139.502)" fill="#fff"/>
    <path id="Path_6325" data-name="Path 6325" d="M471.626,390.462H431.51a3.191,3.191,0,0,1-3.187-3.187V365.9a3.19,3.19,0,0,1,3.187-3.187h40.117a3.19,3.19,0,0,1,3.187,3.187v21.371A3.19,3.19,0,0,1,471.626,390.462Z" transform="translate(-246.994 -200.605)" fill="#f9a826"/>
    <path id="Path_6326" data-name="Path 6326" d="M583.845,390.462H543.729a3.191,3.191,0,0,1-3.187-3.187V365.9a3.19,3.19,0,0,1,3.187-3.187h40.117a3.19,3.19,0,0,1,3.187,3.187v21.371a3.19,3.19,0,0,1-3.187,3.187Z" transform="translate(-298.165 -200.605)" fill="#f9a826"/>
    <path id="Path_6327" data-name="Path 6327" d="M696.065,390.462H655.949a3.19,3.19,0,0,1-3.187-3.187V365.9a3.19,3.19,0,0,1,3.187-3.187h40.117a3.19,3.19,0,0,1,3.187,3.187v21.371A3.191,3.191,0,0,1,696.065,390.462Z" transform="translate(-349.337 -200.605)" fill="#f9a826"/>
    <path id="Path_6328" data-name="Path 6328" d="M471.626,521.462H431.51a3.19,3.19,0,0,1-3.187-3.187V496.9a3.19,3.19,0,0,1,3.187-3.187h40.117a3.19,3.19,0,0,1,3.187,3.187v21.371A3.19,3.19,0,0,1,471.626,521.462Z" transform="translate(-246.994 -260.341)" fill="#f9a826"/>
    <path id="Path_6329" data-name="Path 6329" d="M583.845,521.462H543.729a3.19,3.19,0,0,1-3.187-3.187V496.9a3.19,3.19,0,0,1,3.187-3.187h40.117a3.19,3.19,0,0,1,3.187,3.187v21.371a3.19,3.19,0,0,1-3.187,3.187Z" transform="translate(-298.165 -260.341)" fill="#f9a826"/>
    <path id="Path_6330" data-name="Path 6330" d="M696.065,521.462H655.949a3.19,3.19,0,0,1-3.187-3.187V496.9a3.19,3.19,0,0,1,3.187-3.187h40.117a3.19,3.19,0,0,1,3.187,3.187v21.371A3.191,3.191,0,0,1,696.065,521.462Z" transform="translate(-349.337 -260.341)" fill="#f9a826"/>
    <path id="Path_6331" data-name="Path 6331" d="M471.626,652.462H431.51a3.19,3.19,0,0,1-3.187-3.187V627.9a3.19,3.19,0,0,1,3.187-3.187h40.117a3.19,3.19,0,0,1,3.187,3.187v21.371A3.19,3.19,0,0,1,471.626,652.462Z" transform="translate(-246.994 -320.076)" fill="#f9a826"/>
    <path id="Path_6332" data-name="Path 6332" d="M583.845,652.462H543.729a3.19,3.19,0,0,1-3.187-3.187V627.9a3.19,3.19,0,0,1,3.187-3.187h40.117a3.19,3.19,0,0,1,3.187,3.187v21.371a3.19,3.19,0,0,1-3.187,3.187Z" transform="translate(-298.165 -320.076)" fill="#f9a826"/>
    <path id="Path_6333" data-name="Path 6333" d="M696.065,652.462H655.949a3.19,3.19,0,0,1-3.187-3.187V627.9a3.19,3.19,0,0,1,3.187-3.187h40.117a3.19,3.19,0,0,1,3.187,3.187v21.371A3.191,3.191,0,0,1,696.065,652.462Z" transform="translate(-349.337 -320.076)" fill="#f9a826"/>
    <path id="Path_6334" data-name="Path 6334" d="M453.48,390.906H407.008a4.241,4.241,0,0,1-4.236-4.236V361.913a4.241,4.241,0,0,1,4.236-4.236H453.48a4.241,4.241,0,0,1,4.236,4.236V386.67A4.241,4.241,0,0,1,453.48,390.906Zm-46.473-32.14a3.151,3.151,0,0,0-3.148,3.148V386.67a3.151,3.151,0,0,0,3.148,3.148H453.48a3.151,3.151,0,0,0,3.148-3.148V361.913a3.151,3.151,0,0,0-3.148-3.148Z" transform="translate(-235.343 -198.307)" fill="#3f3d56"/>
    <path id="Path_6335" data-name="Path 6335" d="M583.48,390.906H537.007a4.241,4.241,0,0,1-4.236-4.236V361.913a4.241,4.241,0,0,1,4.236-4.236H583.48a4.241,4.241,0,0,1,4.236,4.236V386.67a4.241,4.241,0,0,1-4.236,4.236Zm-46.473-32.14a3.151,3.151,0,0,0-3.148,3.148V386.67a3.151,3.151,0,0,0,3.148,3.148H583.48a3.151,3.151,0,0,0,3.148-3.148V361.913a3.151,3.151,0,0,0-3.148-3.148Z" transform="translate(-294.622 -198.307)" fill="#3f3d56"/>
    <path id="Path_6336" data-name="Path 6336" d="M713.48,390.906H667.007a4.241,4.241,0,0,1-4.236-4.236V361.913a4.241,4.241,0,0,1,4.236-4.236H713.48a4.241,4.241,0,0,1,4.236,4.236V386.67A4.241,4.241,0,0,1,713.48,390.906Zm-46.473-32.14a3.151,3.151,0,0,0-3.148,3.148V386.67a3.151,3.151,0,0,0,3.148,3.148H713.48a3.151,3.151,0,0,0,3.148-3.148V361.913a3.151,3.151,0,0,0-3.148-3.148Z" transform="translate(-353.902 -198.307)" fill="#3f3d56"/>
    <path id="Path_6337" data-name="Path 6337" d="M453.48,521.906H407.008a4.241,4.241,0,0,1-4.236-4.236V492.913a4.241,4.241,0,0,1,4.236-4.236H453.48a4.241,4.241,0,0,1,4.236,4.236V517.67A4.241,4.241,0,0,1,453.48,521.906Zm-46.473-32.14a3.151,3.151,0,0,0-3.148,3.148V517.67a3.151,3.151,0,0,0,3.148,3.148H453.48a3.151,3.151,0,0,0,3.148-3.148V492.913a3.151,3.151,0,0,0-3.148-3.148Z" transform="translate(-235.343 -258.042)" fill="#3f3d56"/>
    <path id="Path_6338" data-name="Path 6338" d="M583.48,521.906H537.007a4.241,4.241,0,0,1-4.236-4.236V492.913a4.241,4.241,0,0,1,4.236-4.236H583.48a4.241,4.241,0,0,1,4.236,4.236V517.67a4.241,4.241,0,0,1-4.236,4.236Zm-46.473-32.14a3.151,3.151,0,0,0-3.148,3.148V517.67a3.151,3.151,0,0,0,3.148,3.148H583.48a3.151,3.151,0,0,0,3.148-3.148V492.913a3.151,3.151,0,0,0-3.148-3.148Z" transform="translate(-294.622 -258.042)" fill="#3f3d56"/>
    <path id="Path_6339" data-name="Path 6339" d="M713.48,521.906H667.007a4.241,4.241,0,0,1-4.236-4.236V492.913a4.241,4.241,0,0,1,4.236-4.236H713.48a4.241,4.241,0,0,1,4.236,4.236V517.67A4.241,4.241,0,0,1,713.48,521.906Zm-46.473-32.14a3.151,3.151,0,0,0-3.148,3.148V517.67a3.151,3.151,0,0,0,3.148,3.148H713.48a3.151,3.151,0,0,0,3.148-3.148V492.913a3.151,3.151,0,0,0-3.148-3.148Z" transform="translate(-353.902 -258.042)" fill="#3f3d56"/>
    <path id="Path_6340" data-name="Path 6340" d="M453.48,652.906H407.008a4.241,4.241,0,0,1-4.236-4.236V623.913a4.241,4.241,0,0,1,4.236-4.236H453.48a4.241,4.241,0,0,1,4.236,4.236V648.67A4.241,4.241,0,0,1,453.48,652.906Zm-46.473-32.14a3.151,3.151,0,0,0-3.148,3.148V648.67a3.151,3.151,0,0,0,3.148,3.148H453.48a3.151,3.151,0,0,0,3.148-3.148V623.913a3.151,3.151,0,0,0-3.148-3.148Z" transform="translate(-235.343 -317.778)" fill="#3f3d56"/>
    <path id="Path_6341" data-name="Path 6341" d="M583.48,652.906H537.007a4.241,4.241,0,0,1-4.236-4.236V623.913a4.241,4.241,0,0,1,4.236-4.236H583.48a4.241,4.241,0,0,1,4.236,4.236V648.67a4.241,4.241,0,0,1-4.236,4.236Zm-46.473-32.14a3.151,3.151,0,0,0-3.148,3.148V648.67a3.151,3.151,0,0,0,3.148,3.148H583.48a3.151,3.151,0,0,0,3.148-3.148V623.913a3.151,3.151,0,0,0-3.148-3.148Z" transform="translate(-294.622 -317.778)" fill="#3f3d56"/>
    <path id="Path_6342" data-name="Path 6342" d="M713.48,652.906H667.007a4.241,4.241,0,0,1-4.236-4.236V623.913a4.241,4.241,0,0,1,4.236-4.236H713.48a4.241,4.241,0,0,1,4.236,4.236V648.67A4.241,4.241,0,0,1,713.48,652.906Zm-46.473-32.14a3.151,3.151,0,0,0-3.148,3.148V648.67a3.151,3.151,0,0,0,3.148,3.148H713.48a3.151,3.151,0,0,0,3.148-3.148V623.913a3.151,3.151,0,0,0-3.148-3.148Z" transform="translate(-353.902 -317.778)" fill="#3f3d56"/>
    <path id="Path_6343" data-name="Path 6343" d="M643.9,834.306H95.544a.544.544,0,1,1,0-1.088H643.9a.544.544,0,1,1,0,1.088Z" transform="translate(-95 -415.151)" fill="#fff"/>
    <path id="Path_6344" data-name="Path 6344" d="M610.744,734.457a4.682,4.682,0,0,0-4.624-4.739H583.272v56.3h27.472Z" transform="translate(-317.65 -367.956)" fill="#f9a826"/>
    <path id="Path_6345" data-name="Path 6345" d="M560.332,785.25h-28.56V734.386a5.174,5.174,0,0,1,5.168-5.168h23.392Zm-27.472-1.088h26.384V730.306h-22.3a4.085,4.085,0,0,0-4.08,4.08Z" transform="translate(-294.166 -367.728)" fill="#ccc"/>
    <circle id="Ellipse_360" data-name="Ellipse 360" cx="1.632" cy="1.632" r="1.632" transform="translate(239.51 390.051)" fill="#3f3d56"/>
  </g>
</svg>
